/* XPM */
static char *result[] = {
/* columns rows colors chars-per-pixel */
"32 32 104 2 ",
"   c #CFEAF7",
".  c #CFEAF8",
"X  c #D0EBF8",
"o  c #D1EBF8",
"O  c #D2EBF8",
"+  c #D2ECF8",
"@  c #D3ECF8",
"#  c #D3ECF9",
"$  c #D4ECF8",
"%  c #D5EDF8",
"&  c #D5EDF9",
"*  c #D6EDF8",
"=  c #D6EDF9",
"-  c #D7EEF8",
";  c #D7EEF9",
":  c #D5EDFA",
">  c #D6EDFA",
",  c #D8EEF9",
"<  c #D9EFF9",
"1  c #DAEFF9",
"2  c #DBEFF9",
"3  c #D8EEFA",
"4  c #D9EFFA",
"5  c #DAEFFA",
"6  c #DBEFFA",
"7  c #DBEFFB",
"8  c #DBF0FA",
"9  c #DCF0F9",
"0  c #DCF0FA",
"q  c #DDF0FA",
"w  c #DCF0FB",
"e  c #DEF1FA",
"r  c #DEF1FB",
"t  c #DFF1FB",
"y  c #DFF1FC",
"u  c #E0F2FA",
"i  c #E0F2FB",
"p  c #E1F2FB",
"a  c #E2F2FB",
"s  c #E2F3FB",
"d  c #E3F3FB",
"f  c #E4F3FB",
"g  c #E5F4FB",
"h  c #E6F4FB",
"j  c #E7F4FB",
"k  c #E2F2FC",
"l  c #E2F3FC",
"z  c #E3F3FC",
"x  c #E2F3FD",
"c  c #E4F3FC",
"v  c #E5F4FC",
"b  c #E5F4FD",
"n  c #E6F4FC",
"m  c #E7F4FC",
"M  c #E7F5FC",
"N  c #E6F4FD",
"B  c #E7F5FD",
"V  c #E8F5FC",
"C  c #E9F5FC",
"Z  c #E8F5FD",
"A  c #E9F6FD",
"S  c #EAF6FC",
"D  c #EBF6FC",
"F  c #EAF6FD",
"G  c #EBF6FD",
"H  c #EBF7FD",
"J  c #EBF7FE",
"K  c #ECF7FC",
"L  c #EDF7FC",
"P  c #ECF7FD",
"I  c #EDF7FD",
"U  c #ECF7FE",
"Y  c #EDF7FE",
"T  c #EEF8FC",
"R  c #EFF8FC",
"E  c #EEF8FD",
"W  c #EFF8FD",
"Q  c #EEF8FE",
"!  c #EFF8FE",
"~  c #F0F8FD",
"^  c #F0F9FD",
"/  c #F1F9FD",
"(  c #F2F9FD",
")  c #F3FAFD",
"_  c #F0F8FE",
"`  c #F0F9FE",
"'  c #F1F9FE",
"]  c #F2F9FE",
"[  c #F3FAFE",
"{  c #F3FAFF",
"}  c #F4FAFD",
"|  c #F4FAFE",
" . c #F5FBFE",
".. c #F5FBFF",
"X. c #F6FBFE",
"o. c #F7FBFE",
"O. c #F6FBFF",
"+. c #F7FCFF",
"@. c #F8FCFE",
"#. c #F9FCFE",
"$. c #F8FCFF",
"%. c #FAFDFE",
"&. c #FBFDFF",
"*. c #FCFEFF",
/* pixels */
"z d 9 e < s 0 q t 0 i e t q a a p 0 < 1 ; q , p e e i 2 1 t v S ",
"K M ~ d a % a a z n F ` ! W t G V , m v h a ( F z _ H _ E B A M ",
"k m n c G E m ^ z ' S m H I H N B W S I E B 7 P n ~ ~ E M E S D ",
"m k q n v R c t a m e p 2 v K C ' I Q J c W @ 1 p i k l = a q e ",
"s q $ < < K M 0 % e < 0 < 8 0 = 1 e 5 ; q v B Z k e 0 0 e 0 1 ; ",
"n s ^ [ I U r A ! ! F t p 0 t e e * s w i c C Z c N p _ M t e n ",
"I [ E t p i m p _ A F F N I A j f H ` ` e 9 m t v k D ! x B Z G ",
"k 9 q , O q % v 0 2 V c l b ] G Z m H 0 , 2 e i 0 X t p a l D S ",
"t 1 q 1 a q i < 1 e ; & p a B g k 0 a < i < 0 t < e i p i q e 9 ",
"L A V _ Y A E c M @ i o e q 0 0 < < 0 f a s V u I M Q `  .[ _ [ ",
"v a K E [ [ ' $. .I K d p 0 % 2 2 p a  .I ~ | ' D [ X. .W m k c ",
"p 9 i q 5 c n F ` ! { @./ ) G P E ~  .] ] ( K C a 0 k c , t , z ",
"d - c q < e r 9 s c k Y c k G F ! z P l t s 9 e z t   a ; % - e ",
"! E L O.] Y C e p 0 q & @ D # M v C _ | X.#.@.m p f i i C S v ^ ",
"S ~ i m H [ J P B B V < 1 * n c '  .) C K  .[ *. ./ E D g } E C ",
"= a e e 8 l 9 / Z 3 : b c c G N N q p 2 t q p H R [ W ' o.i v p ",
"a 6 z , q q 2 0 8 t v e p e l S v i l ; q p t m + i B B U F 0 f ",
"Q 0 i q a % e M ; s F ! a i & 8 t O d c ~ A G V y Q k V C G l F ",
"B W G I ( / ~ o.$.[ [ &.$.+.| c M  .! Z | Q B c l C v z k l M K ",
"s i S ( ` @.P F z e k m e n ' A ' v Q 8 % v 1 1 e % 8 t ; t 1 a ",
"p p q i 4 i 1 0 ; q < 0 < < 0 t z e & c K | K m 9 0 0 d t t 0 2 ",
"N ^ D ] _ Q z w B z a n 1 e < t 0 h | I D n [ [ | a a g d H D _ ",
"n D i e c p c C ~ k b r F ~ / ) o.W i v a 0 m G T ( | ( I ..O.m ",
"e 1 1 0 ; s 6 p , i V z P B U G . t 1 ; 0 0 e 2 a p V q v p i q ",
"s q 9 f c [ o.W D i q t 9 i q p e i m W H q d q $ t S i 9 q 9 0 ",
"g v ~ o.+.{  .$.%.Z v G , $.[ | ' ! ! ! G ' W v W A k v B P l M ",
"l n W I T D t p E | #.$.] +.C C m S S G Y ! i 7 r n G M S I ` ` ",
"n p c i 0 a p % z % 6 a s v e s d % m e q s n 0 q O , p < c e a ",
"1 o p t < , ; p 0 n ; s e 0 * 9 0 $ d f q 6 > 3 p v O i t , $ 6 ",
"Z n B H M v g g P / P z M E B W ~ F F ! ` Y P S B P B P f M M G ",
"K ( K W ] { ! +.' K ] q V 0 ~ F ~ W M K v c a n n I D G E E K C ",
"& ; z n D C E D a c 6 q q 0 6 k 0 c 2 e p ; t l q , % t a i < z "
};
