/* XPM */
static char *result[] = {
/* columns rows colors chars-per-pixel */
"32 32 81 1 ",
"  c #E3F3FC",
". c #E3F3FB",
"X c #B8E2F8",
"o c #77C4EE",
"O c #63BAEA",
"+ c #B9E3F8",
"@ c #E5F4FC",
"# c #EAF6FC",
"$ c #ECF7FC",
"% c #BCE4F9",
"& c #A2DAF7",
"* c #B1DDF5",
"= c #83CAF1",
"- c #BDE4F9",
"; c #E7F5FC",
": c #BAE3F9",
"> c #D8EEFA",
", c #92CFF1",
"< c #C5E5F7",
"1 c #ECF6FC",
"2 c white",
"3 c #F8FCFE",
"4 c #E1F3FC",
"5 c #C4E6F8",
"6 c #BAE2F7",
"7 c #BEE3F7",
"8 c #C1E5F8",
"9 c #AADBF6",
"0 c #82CBF1",
"q c #8CCFF3",
"w c #92D2F4",
"e c #8FD1F3",
"r c #7FCAF1",
"t c #85CDF2",
"y c #88CFF3",
"u c #9DD8F6",
"i c #9CD7F6",
"p c #8DD1F4",
"a c #90D2F4",
"s c #95D5F5",
"d c #8BD0F4",
"f c #89CEF2",
"g c #A0D9F7",
"h c #93D4F5",
"j c #8FD2F4",
"k c #9AD7F6",
"l c #9FD9F7",
"z c #8AD0F3",
"x c #98D6F6",
"c c #CBEAFA",
"v c #BAE3F8",
"b c #9DD6F4",
"n c #80CAF1",
"m c #97D5F5",
"M c #92D3F5",
"N c #95D3F3",
"B c #C9E9F9",
"V c #77C3ED",
"C c #8ACBEF",
"Z c #5EAEE1",
"A c #5BA7DC",
"S c #7FC0EA",
"D c #8DD0F3",
"F c #86CDF2",
"G c #A3D9F5",
"H c #B9E2F8",
"J c #E5F4FD",
"K c #E2F2FB",
"L c #BBE1F6",
"P c #74BBE7",
"I c #8BB8E0",
"U c #5393CE",
"Y c #8CB8E0",
"T c #8FB9E0",
"R c #8DB9DF",
"E c #E9F5FC",
"W c #D5EDF9",
"Q c #D7EEF9",
"! c #89B7DF",
"~ c #88B7DF",
"^ c #D9EFF9",
/* pixels */
" .XoOOOOOOOOOOOOOOOOOOOOOOOOo+@#",
"$%&*OOOOOOOOOOOOOOOOOOOOOOOO=&-;",
":&&>OOOOOOOOOOOOOOOOOOOOOOOO=&&-",
",<12222234456788899990qwerrrt==o",
"OOO4yyyyyyyyyu&&&&&&ip&&ayyyrOOO",
"OOO4yyyyyyyys&&&&&&&di&iyyyyfOOO",
"OOO4yyyyyyydg&&&&&&sh&gdyyyjwOOO",
"OOO4yyyyyyyk&&&&&&lzg&syyyyuwOOO",
"OOO4yyyyyyj&&&&&&&jx&lyyyyh&wOOO",
"OOOcyyyyyyl&&&&&&kj&&jyyydg&wOOO",
"OOOvyyyyys&&&&&&gdu&kyyyyk&&wOOO",
"OOObyyyyd&&&&&&&sh&gzyyyj&&&eOOO",
"OOObyyyyi&&&&&&udg&hyyyyl&&gnOOO",
"OOObyyya&&&&&&&jk&uyyyys&&&hrOOO",
"OOOryyzl&&&&&&xj&&jyyyd&&&iyrOOO",
"OOOryym&&&&&&gzl&myyyyi&&&pyrOOO",
"OOOryp&&&&&&&hs&gzyyya&&&myyrOOO",
"OOOryi&&&&&&id&&Myyyzl&&gzyyrOOO",
"OOOrM&&&&&&&pi&iyyyym&&&ayyyrOOO",
"OOOng&&&&&&ma&&pyyyp&&&iyyyyrOOO",
"OOOe&&&&&&gdl&syyyyi&&&dyyyyNOOO",
"OOOw&&&&&&am&lzyyyM&&&syyyyybOOO",
"OOOw&&&&&ip&&ayyyzg&&lzyyyyyBOOO",
"OOOw&&&&&di&iyyyyx&&&jyyyyyy4OOO",
"OOOw&&&&sM&gdyyyj&&&kyyyyyyy4OOO",
"OOOw&&&ldg&syyyyu&&gdyyyyyyy4OOO",
"OOOw&&&jx&lyyyyh&&&syyyyyyyy4VOO",
"OOOw&&kj&&jyyydg&&uyyyyyyyyy2COO",
"ZAASww0qwDFbbbG99HJ4444444442KLP",
"IUUAOOOOOOOOOOOOOOOOOOOOOOOO>UUY",
"$TUAOOOOOOOOOOOOOOOOOOOOOOOO*URE",
"WQ!ZOOOOOOOOOOOOOOOOOOOOOOOOP~^ "
};
