/* XPM */
static char *result[] = {
/* columns rows colors chars-per-pixel */
"32 32 108 2 ",
"   c #E3F3FC",
".  c #E3F3FB",
"X  c #DCF0F9",
"o  c #DEF1FA",
"O  c #D9EFF9",
"+  c #E2F3FB",
"@  c #DCF0FA",
"#  c #DDF0FA",
"$  c #DFF1FB",
"%  c #E0F2FB",
"&  c #E2F2FB",
"*  c #E1F2FB",
"=  c #DAEFF9",
"-  c #D7EEF9",
";  c #D8EEF9",
":  c #DBEFF9",
">  c #E5F4FC",
",  c #EAF6FC",
"<  c #ECF7FC",
"1  c #E7F5FC",
"2  c #F0F8FD",
"3  c #D5EDF8",
"4  c #E6F4FC",
"5  c #EAF6FD",
"6  c #F0F9FE",
"7  c #EFF8FE",
"8  c #EFF8FD",
"9  c #EBF6FD",
"0  c #E8F5FC",
"q  c #E7F4FC",
"w  c #E6F4FB",
"e  c #F2F9FD",
"r  c #F0F8FE",
"t  c #EBF7FD",
"y  c #EEF8FD",
"u  c #E7F5FD",
"i  c #E9F6FD",
"p  c #E2F2FC",
"a  c #E4F3FC",
"s  c #F0F9FD",
"d  c #F1F9FE",
"f  c #EDF7FD",
"g  c #E6F4FD",
"h  c #DBEFFB",
"j  c #ECF7FD",
"k  c #EBF6FC",
"l  c #EFF8FC",
"z  c #E9F5FC",
"x  c #EEF8FE",
"c  c #EBF7FE",
"v  c #D3ECF8",
"b  c #E2F3FC",
"n  c #D6EDF9",
"m  c #D4ECF8",
"M  c #DBF0FA",
"N  c #DAEFFA",
"B  c #E8F5FD",
"V  c #F3FAFE",
"C  c #ECF7FE",
"Z  c #DEF1FB",
"A  c #D6EDF8",
"S  c #DCF0FB",
"D  c #E7F4FB",
"F  c #E4F3FB",
"G  c #E2F3FD",
"H  c #D2EBF8",
"J  c #E5F4FD",
"K  c #F2F9FE",
"L  c #D0EBF8",
"P  c #D5EDF9",
"I  c #E5F4FB",
"U  c #EDF7FC",
"Y  c #EDF7FE",
"T  c #D1EBF8",
"R  c #211F30",
"E  c #E0F2FA",
"W  c #F5FBFE",
"Q  c #F8FCFF",
"!  c #A4CC42",
"~  c #72A11D",
"^  c #28860F",
"/  c #F4FAFE",
"(  c #F6FBFE",
")  c #F3FAFF",
"_  c #F8FCFE",
"`  c #C8C395",
"'  c #D7EEF8",
"]  c white",
"[  c #8B6F4C",
"{  c #CFEAF7",
"}  c #F6FBFF",
"|  c #F9FCFE",
" . c #A7975F",
".. c #FCFEFF",
"X. c #F1F9FD",
"o. c #F4FAFD",
"O. c #D8EEFA",
"+. c #F7FBFE",
"@. c #DBEFFA",
"#. c #D2ECF8",
"$. c #DFF1FC",
"%. c #D9EFFA",
"&. c #EEF8FC",
"*. c #F5FBFF",
"=. c #CFEAF8",
"-. c #F7FCFF",
";. c #FAFDFE",
":. c #D6EDFA",
/* pixels */
"  . X o O + @ # $ @ % o $ # & & * @ O = - # ; * o o % : = $ > , ",
"< 1 2 . & 3 & &   4 5 6 7 8 $ 9 0 ; q > w & e 5   r t r y u i 1 ",
"p q 4 a 9 y q s   d , q t f t g u 8 , f y u h j 4 2 2 y 1 y , k ",
"q p # 4 > l a $ & q o * : > < z d f x c a 8 v = * % p b n & # o ",
"+ # m O O < 1 @ 3 o O @ O M @ n = o N - # > u B p o @ @ o @ = - ",
"4 + s V f C Z i 7 7 5 $ * @ $ o o A + S % a z B a g * r 1 $ o 4 ",
"f V y $ * % q * r i 5 5 g f i D F t 6 6 o X q $ > p k 7 G u B 9 ",
"p X # ; H # 3 > @ : 0 a b J K 9 B q t @ ; : o % @ L $ * & b k , ",
"$ = # = & # % O = o - P * & u I p @ & O % O @ $ O o % * % # o X ",
"U i 0 r Y i y a 1 v % T o # R R R R @ F & + 0 E f 1 x 6 W V r V ",
"> & < y V V d Q W f < . * R ! R ~ ^ R W f 2 / d k V ( W 8 q p a ",
"* X % # N a 4 5 6 7 ) _ R ! ~ ~ ~ R ` R K e < z & @ p a ; $ ;   ",
". ' a # O o Z X + a p R ! ] ] ~ ~ ~ ` [ R + X o   $ { & - 3 ' o ",
"7 y U } K Y z o * @ # R ] ] ] ~ R ^ ` [ R | _ q * F % % z , > s ",
", 2 % q t V c j u u R ^ ] ] ~ ~ ~ `  . .[ R V ..W X.y k I o.y z ",
"n & o o M b X X.B O.R R ~ ~ ~ ~ ^ `  . .[ R * t l V 8 d +.% > * ",
"& @.  ; # # : @ M $ R ^ ^ ~ R ^ `  . . .[ R $ q #.% u u C 5 @ F ",
"x @ % # & 3 o 1 - + R ^ R ^  . .[  . . .[ R 9 0 $.x p 0 z 9 b 5 ",
"u 8 9 f e X.2 +.Q V V R  . .[ [  . . . .R x u a b z >   p b 1 < ",
"+ % , e 6 _ j 5   o p R [ [ [ [ [  . .[ R > = = o 3 M $ - $ = & ",
"* * # % %.% = @ - # O @ R [ [ [ [ [ [ R < / < q X @ @ . $ $ @ : ",
"g s k K r x   S u   & 4 = R [ [ [ [ R f k 4 V V / & & I . t k r ",
"4 k % o a * a z 2 p J Z 5 2 R R R R % > & @ q 9 &.e / e f *.} q ",
"o = = @ - + @.* ; % 0   j u C 9 =.$ = - @ @ o : & * 0 # > * % # ",
"+ # X F a V +.8 k % # $ X % # * o % q 8 t # . # m $ , % X # X @ ",
"I > 2 +.-.) W Q ;.B > 9 ; Q V / d 7 7 7 9 d 8 > 8 i p > u j b 1 ",
"b 4 8 f &.k $ * y / | Q K -.z z q , , 9 Y 7 % h Z 4 9 1 , f 6 6 ",
"4 * a % @ & * 3   3 @.& + > o + . 3 q o # + 4 @ # H ; * O a o & ",
"= T * $ O ; - * @ 4 - + o @ A X @ m . F # @.:.O.* > H % $ ; m @.",
"B 4 u t 1 > I I j X.j   1 y u 8 2 5 5 7 6 Y j , u j u j F 1 1 9 ",
"< e < 8 K ) 7 -.d < K # 0 @ 2 5 2 8 1 < > a & 4 4 f k 9 y y < z ",
"P -   4 k z y k & a @.# # @ @.p @ a : o * - $ b # ; 3 $ & % O   "
};
