/* XPM */
static char *result[] = {
/* columns rows colors chars-per-pixel */
"32 32 191 2 ",
"   c #08345E",
".  c #0A3660",
"X  c #0E3A67",
"o  c #0A3C6B",
"O  c #1A3E64",
"+  c #133C69",
"@  c #35495F",
"#  c #3C4B5C",
"$  c #194067",
"%  c #18416C",
"&  c #0D4474",
"*  c #0F4A7D",
"=  c #104570",
"-  c #134A76",
";  c #134E7B",
":  c #1C4771",
">  c #16527D",
",  c #19557F",
"<  c #344B62",
"1  c #3A4E64",
"2  c #324E6C",
"3  c #3A4E69",
"4  c #3D5066",
"5  c #3A5069",
"6  c #224D76",
"7  c #26517F",
"8  c #2D5072",
"9  c #365071",
"0  c #34577C",
"q  c #325879",
"w  c #3B5D7D",
"e  c #3F5274",
"r  c #414E5B",
"t  c #4D545C",
"y  c #47515B",
"u  c #515151",
"i  c #5A5C5D",
"p  c #404D62",
"a  c #42576D",
"s  c #505762",
"d  c #575F65",
"f  c #525E6D",
"g  c #435A72",
"h  c #4D5F74",
"j  c #465B7F",
"k  c #5C6266",
"l  c #5C646C",
"z  c #53616D",
"x  c #45627B",
"c  c #4B637B",
"v  c #4E6174",
"b  c #5C6573",
"n  c #5C6977",
"m  c #53667A",
"M  c #53697D",
"N  c #5E6C7A",
"B  c #546273",
"V  c #61666C",
"C  c #61686F",
"Z  c #656769",
"A  c #77726F",
"S  c #626777",
"D  c #636A72",
"F  c #696E74",
"G  c #626E7D",
"H  c #67717F",
"J  c #6E747C",
"K  c #71777F",
"L  c #144D80",
"P  c #165383",
"I  c #1A5583",
"U  c #175985",
"Y  c #1A5886",
"T  c #19578C",
"R  c #1C5B8C",
"E  c #16588C",
"W  c #1D5D92",
"Q  c #1D5F99",
"!  c #2C5A85",
"~  c #255A8A",
"^  c #2B5B8A",
"/  c #285883",
"(  c #305C86",
")  c #305989",
"_  c #3B5B81",
"`  c #235F95",
"'  c #325D92",
"]  c #1E6198",
"[  c #1B6094",
"{  c #26608E",
"}  c #3C6586",
"|  c #30628E",
" . c #386689",
".. c #246093",
"X. c #24639B",
"o. c #29659D",
"O. c #29689E",
"+. c #346293",
"@. c #386797",
"#. c #33649C",
"$. c #3A6798",
"%. c #3E6993",
"&. c #2766A1",
"*. c #2C66A2",
"=. c #2D6AA4",
"-. c #2D6AAB",
";. c #3366A4",
":. c #316AA6",
">. c #3A6CA3",
",. c #326DAB",
"<. c #3471AE",
"1. c #3A70AD",
"2. c #2F6FB0",
"3. c #326FB1",
"4. c #386FB3",
"5. c #3472B3",
"6. c #3A72B3",
"7. c #3474B9",
"8. c #3B75BA",
"9. c #3D79BC",
"0. c #435B83",
"q. c #435B88",
"w. c #496287",
"e. c #456987",
"r. c #4C658C",
"t. c #4D6B8C",
"y. c #4A6983",
"u. c #506D88",
"i. c #546C84",
"p. c #5C7180",
"a. c #4D6790",
"s. c #456B92",
"d. c #4B6B93",
"f. c #516E97",
"g. c #4B7092",
"h. c #666F80",
"j. c #6C7483",
"k. c #717782",
"l. c #747A83",
"z. c #707789",
"x. c #757C8B",
"c. c #797F8B",
"v. c #787B86",
"b. c #757F92",
"n. c #3C7AC0",
"m. c #417EC2",
"M. c #417FC9",
"N. c #7D838D",
"B. c #768194",
"V. c #7F8592",
"C. c #818693",
"Z. c #828996",
"A. c #858C99",
"S. c #898E9B",
"D. c #8A919E",
"F. c #84929C",
"G. c #8E95A2",
"H. c #8A98A3",
"J. c #9198A6",
"K. c #959DAA",
"L. c #989EAC",
"P. c #96A4AD",
"I. c #99A2AE",
"U. c #9FA8AF",
"Y. c #96A7B2",
"T. c #9CA5B2",
"R. c #9AA9B3",
"E. c #A2AAB4",
"W. c #A3ADB9",
"Q. c #A6B3BE",
"!. c #AAB3BD",
"~. c #B3BDC5",
"^. c #BAC5CE",
"/. c #BECCD5",
"(. c #B4C8D3",
"). c #C2CDD4",
"_. c #C7D1D9",
"`. c #C7D8E3",
"'. c #C8D9E3",
"]. c #D2DEE5",
"[. c #D4E5EE",
"{. c #CFE8F4",
"}. c #D6EDF9",
"|. c #DAEFF9",
" X c #DCE9F1",
".X c #DDF0FA",
"XX c #E4EEF4",
"oX c #E3F3FC",
"OX c #EBF6FD",
"+X c #EEF8FD",
"@X c #F2F9FE",
/* pixels */
"oXoX|.oX|.oX|.|..X.X.X.X.X.XoXoX.X.X|.|.}..X|..X.X.X.X|..XoXoXOX",
"+XoX@XoXoX}.oXoXoXoXOX@X@X+X'.!.K.(. XoXoXoX@XOXoX@XOX@X+XoXOXoX",
"oXoXOXoXOX+XoX@XoX@XOXOX].Q.W.K.A.L.E.^.XXOX|.OXoXOX@XOXoX+XOXOX",
"oXoX|.oXoX+XoX.XoXoX/.W.T.E.G.N.k.C.G.J.K.~.{..XoXoXoXoX}.oX.X.X",
"oX.X}..X|.OXOX.X(.W.D.J.D.N.D < < b v.N.C.C.T./.|.oX|.|..X.X.X}.",
"oXoX+X@XOXOX`.!.U.P.D.K b 5 $   . X 2 N v.C.K.T.W./.oXOXOX.X.XoX",
"OX@XOX.X].~.K.L.D.N.b 1 $ X - - - ; o X 2 G N.A.G.J.E._.oXoXOXOX",
"oX.X|.}.Y.G.S.l.l @ $ X = , Y U ; Y P ; X + 5 h.c.C.Z.H.oXoXOXOX",
".X.X.X|.I.C.F # O = ; ; , Y Y Y > Y Y Y > P & % g h.c.Z.oX|.oX|.",
"OXOXoX+XE.x.l @ * I R I U R R R Y R Y R > R E P : G N.A.@X@X+X@X",
"oXoX+X+X!.C.D @ ; R W I Y ~ W R Y R R [ Y R R U 6 G G.L.+XoXoXoX",
"oX.X.X.XT.c.D @ P R W Y R W ..R R Q R W Y W R E 6 G Z.G.|.oX|.oX",
"oX}.oX.XT.N.C < P Q W R W W ] R T ] ..{ ~ { ~ ! 8 G Z.D.}.}.}.|.",
"+X+X@X@XE.x.C # !  .} } } e.e.y.M G n n F F Z k s G Z.S.OXOXOX+X",
"OXOXoXoXE.x.D t Z Z F F b D z n m M c c j w 0 q 2 G C.S.oX+XOXOX",
"}.oX.X.XH.l.C 1 q ! ( ~ ~ ..X.` R X.X.X.W &.` W / N C.D.@XoXoXoX",
"oX|.oX|.F.k.k 3 Q X.o.` o.o.o.O.X.o.X.o.X.O.] ] / n k.A.+XOX.XoX",
"OX|.oX.XP.D.D 1 ` O.O.o.X.*.o.O.X.O.o.O.X.@.x | ! N C.A.OXOXoXoX",
"OXOXOXOXE.K.l.1 ` *.O.O.O.=.*.o.X.=.O.O.&.c A M ~ G S.Z.oXoXoX+X",
"oXoXOX@XE.S.K 2 o.=.=.O.*.=.=.o.X.=.:.*.O.g u 5 ^ H A.N.}..X.XoX",
"oXoX|.oXT.A.J 3 &.=.=.o.=.,.,.*.o.:.,.=.*.x e c ( G Z.A..X.X.X.X",
"oX+XOX@XE.A.F 3 &.-.-.;.=.,.,.,.#.,.,.-.*.+.w ^ ^ G Z.D.oXOXOX+X",
"oXOX.X.XT.Z.F 5 =.=.,.,.=.,.<.,.:.,.,.<.*.,.-.-.) N V.D.+X@X@XOX",
".X|.|..XY.C.D 5 =.-.<.-.-.5.7.3.-.5.3.5.-.5.2.-.' n V.D.oXoX.X.X",
"oX.X.XoXQ.C.D y f n m M i.u.t.t.e.g.d.d.s.s.s.%._ N A.G..X.X.X.X",
"oXoX@X@X!.T.l.r j m v f B B f b l l k l k i i i t G G.T.oX+XoXoX",
"oXoX@X+XU.J.K 3 -.2.7.,.,.,.6.1.;.1.,.>.#.>.$.@.0 G S.F.OX+X@X+X",
"oXoXoXoXP.J.K 5 ,.5.6.4.4.8.9.8.,.n.9.9.6.8.8.7.' G S.V.|.oX.XoX",
"}.}..XoXY.K.J 3 -.4.9.4.4.9.m.6.#.m.9.9.4.9.1.6.+.N Z.S..X|.}.|.",
"oXOXoXOX^.J.K 3 -.6.8.;.;.4.8.,.#.M.n.9.;.4.6.8.+.N Z.D.oXoXoXOX",
"+X@XOX+X).K.J p q.r.r.r.r.r.a.r.r.f.d.r.0.0.q.q.g n Z.H.+X+X+XOX",
"}.|.oXoX).G.j.h.z.z.b.b.b.B.B.b.x.z.j.j.h.S S b b b Z.H.oX.X|.oX"
};
