/* XPM */
static char *result[] = {
/* columns rows colors chars-per-pixel */
"32 32 96 2 ",
"   c #000000",
".  c #03070A",
"X  c #06090E",
"o  c #080809",
"O  c #0B0F13",
"+  c #0C1116",
"@  c #0C121A",
"#  c #11161D",
"$  c #13181E",
"%  c #0A1622",
"&  c #0B1824",
"*  c #0A1A29",
"=  c #131A22",
"-  c #171F28",
";  c #1C2327",
":  c #1C242E",
">  c #1B2534",
",  c #1C2A3A",
"<  c #20262A",
"1  c #202A36",
"2  c #242F42",
"3  c #233241",
"4  c #33414E",
"5  c #3B506A",
"6  c #4F555D",
"7  c #545A62",
"8  c #595E6C",
"9  c #5B6166",
"0  c #53606E",
"q  c #5C626A",
"w  c #5B6574",
"e  c #5B6976",
"r  c #5F6C7B",
"t  c #60666F",
"y  c #626777",
"u  c #626972",
"i  c #696E76",
"p  c #626E7C",
"a  c #67717F",
"s  c #6E747C",
"d  c #71777F",
"f  c #666F80",
"g  c #6C7483",
"h  c #717781",
"j  c #747A83",
"k  c #787B86",
"l  c #707789",
"z  c #757C8B",
"x  c #797E8B",
"c  c #757F92",
"v  c #7D838D",
"b  c #768194",
"n  c #7F8592",
"m  c #818693",
"M  c #838996",
"N  c #858C99",
"B  c #898E9B",
"V  c #84929C",
"C  c #8A919E",
"Z  c #8E95A2",
"A  c #8A98A3",
"S  c #9096A4",
"D  c #9198A6",
"F  c #959DAA",
"G  c #989EAC",
"H  c #96A4AD",
"J  c #99A2AE",
"K  c #9FA8AF",
"L  c #96A7B2",
"P  c #9CA5B2",
"I  c #9AA9B3",
"U  c #A2AAB4",
"Y  c #A3ADB9",
"T  c #A6B3BE",
"R  c #AAB3BD",
"E  c #B3BDC5",
"W  c #BAC5CE",
"Q  c #B3C5D1",
"!  c #B5CAD5",
"~  c #BECCD5",
"^  c #C2CDD4",
"/  c #C7D1D9",
"(  c #C7D8E3",
")  c #C8D9E3",
"_  c #D2DEE5",
"`  c #D4E5EE",
"'  c #CFE8F4",
"]  c #DCE9F1",
"[  c #D6EDF9",
"{  c #DAEFF9",
"}  c #DDF0FA",
"|  c #E4EEF4",
" . c #E3F3FC",
".. c #EBF6FD",
"X. c #EEF8FD",
"o. c #F2F9FE",
/* pixels */
" . .{  .{  .{ { } }  .} } }  . .} } } [ [ { {  .} }  .{ { }  ...",
"X. .o. . .[  . . . ...X.X.X.( R F Q ]  . . .o... .X...o.........",
" . ... ...X. .o. .o....._ R U F N J Y W | ..{ X. ...X...........",
" . .{  . .X. .}  . .~ Y P Y Z v h M C D F E ' {  . . . .[  .{ } ",
" .} [ { { ....} ! Y B S C v u     w k n n M P ^  .{ { } } { { [ ",
" . .o.o.....( R P J C d 6 1         = y x n G J U ~  ... . . . .",
"..o...} _ E F G Z x e ;                 = p v M Z D Y /  . . ...",
" .} { [ L Z B h 7 O                         , a x m M Z  . .....",
"} { } { H m i 4 .                             % 5 a x m  .{  .{ ",
".... .o.U z q 3                                 * r v B o.o.X.o.",
" . .X.X.R n u :                                 % p Z G X... . .",
" .} } } K v u $                               . . p m S { { {  .",
" .[  .} P x u $                             .   @ p M B [ [ [ { ",
"X.X.o.o.U z t $                                 $ p M B .... .o.",
".... . .U k w $                                 X w M B  .o.X...",
"[  .} } A x t +                               . @ w m C o. . . .",
" .{  .{ C d 8 #                               . % w h B ....}  .",
"..{  .{ H C u =                                 & p M N  ... ...",
" .o...X.K F j =                                 % a B n  .}  .X.",
" . .X.o.U C d #                                 @ r M n [ } }  .",
"}  .} } P N s %                                 + p M B } } } } ",
" .o.X.o.U N i =                                 @ r M C  .....X.",
" ...} } K M i =                                 % e n C X.o.o...",
"} { } } L m t -                                 @ e n C  .}  .} ",
" .} }  .T m u < o .                             X r N Z } } } } ",
" . .o.o.R P j ;                                 . f D J  .X. . .",
" . .o...K D d $             .                   . r V N ..X.o.X.",
" . . . .H D d +                                 . r V M [  .}  .",
"[ [  .} L F s #                                 X r N C } [ [ } ",
".. .....W D d >                     .           X r M C  ... ...",
"..o...X.^ D t : > % O @ + # # @ @ O + # O @ % > 3 0 n C X.X.X...",
"[ [  ...^ C g w l z c c b c c c z l g g a p y w 8 w M A  .} [  ."
};
