/* XPM */
static char *result[] = {
/* columns rows colors chars-per-pixel */
"32 32 186 2 ",
"   c #3A5D70",
".  c #3E6478",
"X  c #73576B",
"o  c #4B606B",
"O  c #41677C",
"+  c #4D6D7F",
"@  c #526671",
"#  c #576676",
"$  c #5E757B",
"%  c #656A6E",
"&  c #646F75",
"*  c #677B7A",
"=  c #737879",
"-  c #8C5D69",
";  c #8E636C",
":  c #8A766A",
">  c #986A73",
",  c #7F8376",
"<  c #848173",
"1  c #A68678",
"2  c #3D6D8C",
"3  c #397195",
"4  c #476B81",
"5  c #46738E",
"6  c #597786",
"7  c #417590",
"8  c #477A99",
"9  c #527A98",
"0  c #607982",
"q  c #627B87",
"w  c #467AA4",
"e  c #5C8699",
"r  c #7B8785",
"t  c #658193",
"y  c #6A8996",
"u  c #628799",
"i  c #738C9A",
"p  c #798999",
"a  c #78929D",
"s  c #4A83A1",
"d  c #4C8CA7",
"f  c #4988AB",
"g  c #5688A4",
"h  c #5D98AE",
"j  c #4685B1",
"k  c #4994B3",
"l  c #4B9ABD",
"z  c #5395BA",
"x  c #6493AA",
"c  c #6E99AF",
"v  c #7694A5",
"b  c #679BB5",
"n  c #6C9DB5",
"m  c #53A0BE",
"M  c #7EA1B3",
"N  c #73A3BB",
"B  c #7AA5BA",
"V  c #3D92CE",
"C  c #3E9FD8",
"Z  c #3BA8E5",
"A  c #3DB2EA",
"S  c #3ABBEE",
"D  c #478DC6",
"F  c #4799CC",
"G  c #4A9DCF",
"H  c #5897C6",
"J  c #489CD1",
"K  c #649CD2",
"L  c #49A2C6",
"P  c #59A4C6",
"I  c #4BA4D5",
"U  c #4AA8DB",
"Y  c #58A6D8",
"T  c #4EB1DD",
"R  c #6EA4C1",
"E  c #65AAC5",
"W  c #74A9C3",
"Q  c #77B5CD",
"!  c #62A6D1",
"~  c #6DB8D6",
"^  c #73BBD5",
"/  c #7CB9D7",
"(  c #49B7E8",
")  c #43BDEE",
"_  c #55B9E5",
"`  c #5EBCE5",
"'  c #5DB7E9",
"]  c #49BEF1",
"[  c #61B4E2",
"{  c #68B8E1",
"}  c #63BAEA",
"|  c #6BBDEB",
" . c #74BDE9",
".. c #78C1D9",
"X. c #4CC1ED",
"o. c #55C0E9",
"O. c #59C3EE",
"+. c #44C1F2",
"@. c #43C5FA",
"#. c #4DCDF9",
"$. c #58C2F3",
"%. c #6BC1E1",
"&. c #75C5EF",
"*. c #79C6EF",
"=. c #64CAF1",
"-. c #68CCF3",
";. c #7AC7F0",
":. c #7EC9F1",
">. c #64D4FA",
",. c #70D3F5",
"<. c #72DBFB",
"1. c #7EE4FC",
"2. c #808F8F",
"3. c #918D83",
"4. c #8E968D",
"5. c #9A9A8A",
"6. c #8C9990",
"7. c #959D92",
"8. c #B89F90",
"9. c #9EA698",
"0. c #B7A18D",
"q. c #AFAB94",
"w. c #B3A996",
"e. c #B4AE9C",
"r. c #B6B499",
"t. c #8CA1AC",
"y. c #9DA9AF",
"u. c #88AAB8",
"i. c #92AEB8",
"p. c #ACB6AA",
"a. c #B7BAA9",
"s. c #C79E89",
"d. c #C8BD9D",
"f. c #BFC4B4",
"g. c #C5C9A2",
"h. c #CCCAAC",
"j. c #D5C6A9",
"k. c #C8CAB6",
"l. c #C7CCBB",
"z. c #D4CCB6",
"x. c #CFDAB3",
"c. c #CFDEB9",
"v. c #D3D8BD",
"b. c #87B5CB",
"n. c #94B8C0",
"m. c #8DBAD1",
"M. c #83B3DD",
"N. c #96CBDA",
"B. c #96D2DD",
"V. c #82C5E7",
"C. c #86C8EC",
"Z. c #97CBE9",
"A. c #85CDF2",
"S. c #89CEF2",
"D. c #8CD1F4",
"F. c #86DAF1",
"G. c #93D4F5",
"H. c #9BD6F5",
"J. c #9DD8F6",
"K. c #B0D4ED",
"L. c #A3DAF7",
"P. c #ABDCF5",
"I. c #A6DCF8",
"U. c #AADDF8",
"Y. c #82E1FB",
"T. c #9AE9F7",
"R. c #A6E0ED",
"E. c #A7ECFA",
"W. c #BCE3F7",
"Q. c #B7E7FA",
"!. c #A7F0FC",
"~. c #ADF0FC",
"^. c #B3F1FC",
"/. c #C0D9EF",
"(. c #D5EEE5",
"). c #C4E6F8",
"_. c #CAE9F9",
"`. c #D5EDF9",
"'. c #DAEFF9",
"]. c #DDF0FA",
"[. c #E2EFF9",
"{. c #E3F3FC",
"}. c #EBF6FC",
"|. c #EEF8FD",
" X c #F2F9FE",
".X c #FEFFFF",
/* pixels */
"{.{.'.{.'.`.A.' } } } } } } } } } } } } } } } } ' A.`.'.'.[.{.}.",
"|.{. X{.'.U.P.} ' } } } } } } } } } } } } } } } } A.P.}.|.{.}.{.",
"{.{.}.{.Q.L.). .} } ' =.} } [ 8 2 8 { } } } } } } S.I.Q.{.|.}.|.",
"{.{.'.{.H.'..X.X.X.X X{._.W.t./ %.Q t.H.A.G.D.:.:.A.A.:.'.{.].'.",
"{.'.`.'.| ' W.H.A.D.S.S.A.D.$ u e e q H.H.I.D.D.D.;.} | ].'.'.'.",
"{.{. X X| ' W.H.A.A.S.A.x 6 P T I T L 6 B H.A.A.D.:.' | {.{.].{.",
"|. X|.'.| ' W.H.A.A.C.x L X.I G L G L X.m n C.D.G.A.' | {.{.}.}.",
"{.].'.`.| ' W.H.A.S.n k #.I } =.=.>._ J #.d W A.J.S.' | {.{.}.}.",
"].'.'.'.| ' W.H.A.*.x L J ` !.^.~.^.T._ C l c V.I.S.' | [.'.{.'.",
"|.}.}. X| ' P.H.A.N d Z ` ~.~ P m z *.!.T Z s Q U.A.} |  X X X X",
"{.{.}.|.| ' L.G.A.W 3 O.^.^ r < 2.< , ~ E.( 2 N.U.A.' |  X{.{.{.",
"{.'.{.'.| [ S.G.A.R h ~.^ $ d.0.v.z.1 6 ~ T.g m.I.A.' | `.[.`.{.",
"{.`.{.'.| } S.G.A.R n.B.X s.h.- d.8.> g.6 N.u.m.L.*.' | '.`.`.'.",
"|.|.|. X| ' S.G.A.N Q E : j.h.e.l.k.w.x.< P B m.H.*.' | }.}.{. X",
"}.|.{.}.| ' *.S.A.G.B # 3.j.z.h.h.h.k.l.r.y B H.G.&.} | {. X|.}.",
"`.{.'.].| } *.S.G.J.L.v ; = 6 a.h.h.9.+ * M L.H.D.&.} |  X{.{.{.",
"{.'.{.'.| } ;.S.G.P.L.R.p f D 0 l.a.4 V 8 u.J.D.D.;.} | |.}.'.{.",
" X'.'.'.| ' ;.S.L.L.L.H.p f J 6 q.5.3 U u u.J.A.D.;.' | }.}.{.}.",
"}.|.}.|.| ' &.H.L.L.H.x b.M.] I O 7 ( :.N c D.S.D.;.' | {.{.{.}.",
"{.'.}. X| } ;.L.L.Z.t 7 #.~.-.) J Z ,.!.@.2 e C.A.;.} | `.].'.{.",
"{.{.'.{.| ' A.I.L.b.0 7.5 T.<.( @.S 1.R.t 6.+ ..D.S.' | ].{.'.'.",
"{. X}. X| ' A.P.L.i k.(.e.a F.] ) ) o.2.e.(.p.e G.S.' | {.}.}. X",
"{.|.].].| ' A.I.L.4.c.k.(.= j -.U ] w : c.f.c.r H.P.' | |. X X}.",
"{.'.'.'.| } A.L.L.c q.v.5.k ` O.( _ } d 5.x.6.b H.W.' | {.{.{.'.",
"{.'.'.{.| ' A.L.L.L.n * 9 A <.X.+.=.Y.Z 7 * n A.H.W._ | '.].].].",
"{.{. X X| } A.P.L.J.G.i s A >.] F Y <.A w x D.A.H.W.' | {.|.{.{.",
"{.{. X|.| [ A.I.I.G.H.v g ] >.` H ! >.$.9 n A.A.H.).| | }.|. X|.",
"{.{.{.{.| ' A.U.J.G.L.N i N.Z.u.t.i.N.N.y R A.A.H.{.| } `.{.].{.",
"'.`.[.[.[ Y  .G.D.S.G.S.u o @ @ @ & = % y.{.{.{.{..X`.C.{.'.`.'.",
"}.{.{.}.M.H Y } } } } } z   + .   o 4 . H } } ' ;.K.D M.{.{.{.}.",
"}. X|.|.[.K Y } } } } } { 8 . 2 . O O s [ } } } &.Z.K '.|.|.|.}.",
"`.'.[.}.|./.Y } } } } } } } | } } } } } } } } } | [ K.].{.].'.{."
};
