/* XPM */
static char *result[] = {
/* columns rows colors chars-per-pixel */
"32 32 109 2 ",
"   c #E3F3FC",
".  c #E3F3FB",
"X  c #DCF0F9",
"o  c #DEF1FA",
"O  c #D9EFF9",
"+  c #E2F3FB",
"@  c #DCF0FA",
"#  c #DDF0FA",
"$  c #DFF1FB",
"%  c #E0F2FB",
"&  c #E2F2FB",
"*  c #E1F2FB",
"=  c #DAEFF9",
"-  c #D7EEF9",
";  c #D8EEF9",
":  c #DBEFF9",
">  c #E5F4FC",
",  c #EAF6FC",
"<  c #ECF7FC",
"1  c #E7F5FC",
"2  c #F0F8FD",
"3  c #D5EDF8",
"4  c #E6F4FC",
"5  c #EAF6FD",
"6  c #F0F9FE",
"7  c #EFF8FE",
"8  c #EFF8FD",
"9  c gray13",
"0  c #E7F4FC",
"q  c #E6F4FB",
"w  c #F2F9FD",
"e  c #F0F8FE",
"r  c #EBF7FD",
"t  c #EEF8FD",
"y  c #E7F5FD",
"u  c #E9F6FD",
"i  c #E2F2FC",
"p  c #E4F3FC",
"a  c #EBF6FD",
"s  c #F0F9FD",
"d  c #F1F9FE",
"f  c #EDF7FD",
"g  c #6CD9FF",
"h  c #19AFE7",
"j  c #DBEFFB",
"k  c #ECF7FD",
"l  c #EBF6FC",
"z  c #EFF8FC",
"x  c #EBF7FE",
"c  c #D3ECF8",
"v  c #E2F3FC",
"b  c #D6EDF9",
"n  c #D4ECF8",
"m  c #E8F5FD",
"M  c #F3FAFE",
"N  c #ECF7FE",
"B  c #DEF1FB",
"V  c #1B68A4",
"C  c #E9F5FC",
"Z  c #E6F4FD",
"A  c #E2F3FD",
"S  c #D2EBF8",
"D  c #BAFBFF",
"F  c #D0EBF8",
"G  c #EDF7FC",
"H  c #E8F5FC",
"J  c #EDF7FE",
"K  c #EEF8FE",
"L  c #F5FBFE",
"P  c #F8FCFF",
"I  c #E6B773",
"U  c #B38E59",
"Y  c #E6CAA1",
"T  c #F6FBFE",
"R  c #DAEFFA",
"E  c #800D0D",
"W  c #D7EEF8",
"Q  c #E61717",
"!  c #CFEAF7",
"~  c #F6FBFF",
"^  c #F2F9FE",
"/  c #E4F3FB",
"(  c #4D0808",
")  c #FCFEFF",
"_  c #F1F9FD",
"`  c #E5F4FB",
"'  c #F4FAFD",
"]  c #DBF0FA",
"[  c #D8EEFA",
"{  c #D5EDFA",
"}  c #F7FBFE",
"|  c #DBEFFA",
" . c #D2ECF8",
".. c #DFF1FC",
"X. c gray60",
"o. c #F8FCFE",
"O. c #D9EFFA",
"+. c #DCF0FB",
"@. c #F4FAFE",
"#. c #F5FBFF",
"$. c #F7FCFF",
"%. c #F3FAFF",
"&. c #FAFDFE",
"*. c #EEF8FC",
"=. c #F9FCFE",
"-. c #D1EBF8",
";. c #D6EDFA",
":. c gray30",
">. c #D5EDF9",
/* pixels */
"  . X o O + @ # $ @ % o $ # & & * @ O = - # ; * o o % : = $ > , ",
"< 1 2 . & 3 & &   4 5 6 7 8 $ 9 9 9 0 > q & w 5   e r e t y u 1 ",
"i 0 4 p a t 0 s   d , 0 r f 9 g h g 9 f t y j k 4 2 2 t 1 t , l ",
"0 i # 4 > z p $ & 0 o * : > 9 9 9 9 9 x p 8 c = * % i v b & # o ",
"+ # n O O < 1 @ 3 o O @ 9 9 h h h h h 9 9 > y m i o @ @ o @ = - ",
"4 + s M f N B u 7 7 5 9 h h V V V V V h h 9 C m p Z * e 1 $ o 4 ",
"f M t $ * % 0 * e u 9 h h V h h h h h V h h 9 $ > i l 7 A y m a ",
"i X # ; S # 3 > @ : 9 h V h D D D D D h V h 9 % @ F $ * & v l , ",
"$ = # = & # % O = 9 h V h D g g g g g D h V h 9 O o % * % # o X ",
"G u H e J u t p 1 9 V h D g 9 9 9 9 9 g D h V 9 f 1 K 6 L M e M ",
"> & < t M M d P L 9 h D g 9 I U Y Y U 9 g D h 9 l M T L 8 0 i p ",
"* X % # R p 4 5 6 9 D g 9 U I E I I E I 9 g D 9 & @ i p ; $ ;   ",
". W p # O o B X + 9 D 9 Q I I E I I E I I 9 D 9   $ ! & - 3 W o ",
"7 t G ~ ^ J C o * 9 g 9 U I I I Y Y I I I 9 g 9 * / % % C , > s ",
", 2 % 0 r M x k y y 9 ( U I Y I I I I Y I U 9 ) L _ t l ` ' t C ",
"b & o o ] v X _ m [ { ( E 9 9 I I I I 9 9 9 * r z M 8 d } % > * ",
"& |   ; # # : @ ] $ > o 9 V V 9 Y Y 9 V V 9 $ 0  .% y y N 5 @ / ",
"K @ % # & 3 o 1 - + 5 7 9 V V 9 I I 9 V V 9 a H ..K i H C a v 5 ",
"y 8 a f w _ 2 } P M M 9 X.V h V 9 9 V h X.9 y p v C >   i v 1 < ",
"+ % , w 6 o.k 5   o 9 h g D h h V V h D h h 9 = o 3 ] $ - $ = & ",
"* * # % O.% = @ - 9 9 9 h D h h h h h D g 9 9 9 X @ @ . $ $ @ : ",
"Z s l ^ e K   +.y 9 Y Y 9 D g h h h h D 9 Y Y 9 @.& & ` . r l e ",
"4 l % o p * p C 9 I Y Y Y 9 g h h h h 9 I Y Y I 9 w @.w f #.~ 0 ",
"o = = @ - + | * 9 I I Y Y 9 V g V h V 9 I I I I 9 * H # > * % # ",
"+ # X / p M } 8 l 9 I I 9 h g h h h g h 9 I I 9 n $ , % X # X @ ",
"` > 2 } $.%.L P &.m 9 9 V h g h h h g h V 9 9 > 8 u i > y k v 1 ",
"v 4 8 f *.l $ * t @.=.9 V h g h V V g h V 9 % j B 4 a 1 , f 6 6 ",
"4 * p % @ & * 3   3 | 9 V h h h V V h h V 9 4 @ # S ; * O p o & ",
"= -.* $ O ; - * @ 4 - 9 X.D D X.X.X.D D X.9 ;.[ * > S % $ ; n | ",
"m 4 y r 1 > ` ` k _ k   9 9 9 9 9 9 9 9 9 J k , y k y k / 1 1 a ",
"< w < 8 ^ %.7 $.d < ^ # 9 9 :.9 9 9 :.9 9 p & 4 4 f l a t t < C ",
">.-   4 l C t l & p | # # 9 9 9 9 9 9 9 * - $ v # ; 3 $ & % O   "
};
