/* XPM */
static char *result[] = {
/* columns rows colors chars-per-pixel */
"32 32 189 2 ",
"   c #3B5664",
".  c #3D6175",
"X  c #3E6378",
"o  c #465863",
"O  c #4D5F70",
"+  c #4A606E",
"@  c #4B6472",
"#  c #466678",
"$  c #42697C",
"%  c #576B75",
"&  c #5C6D75",
"*  c #5B707B",
"=  c #67666A",
"-  c #6B7274",
";  c #767D76",
":  c #717679",
">  c #9B6B71",
",  c #90847E",
"<  c #396C89",
"1  c #476B82",
"2  c #4A7184",
"3  c #43748A",
"4  c #497088",
"5  c #53748B",
"6  c #597788",
"7  c #5C7B8C",
"8  c #467996",
"9  c #4C7E95",
"0  c #507C9C",
"q  c #647A86",
"w  c #3B82AC",
"e  c #3C91BE",
"r  c #5B808E",
"t  c #4A809D",
"y  c #568194",
"u  c #57849B",
"i  c #5A859C",
"p  c #6E8386",
"a  c #778586",
"s  c #668696",
"d  c #728C9A",
"f  c #789198",
"g  c #4F83A6",
"h  c #4386AE",
"j  c #5182A4",
"k  c #598BA3",
"l  c #4E92AF",
"z  c #4487B7",
"x  c #498BBD",
"c  c #508EB0",
"v  c #5F9EBE",
"b  c #618DA3",
"n  c #688CA5",
"m  c #6C92A5",
"M  c #6792A9",
"N  c #6B97A8",
"B  c #7595A4",
"V  c #59A2BA",
"C  c #65A3BC",
"Z  c #72A5BA",
"A  c #3695D4",
"S  c #3EA1C2",
"D  c #3AABE8",
"F  c #4B8DC6",
"G  c #4A90C0",
"H  c #4A9ACF",
"J  c #5499CC",
"K  c #649CD2",
"L  c #59A2CB",
"P  c #41A1DB",
"I  c #46A9DB",
"U  c #4CADDE",
"Y  c #56A6D7",
"T  c #59A3D9",
"R  c #72A8C4",
"E  c #7DACC5",
"W  c #74AFCC",
"Q  c #69B1CF",
"!  c #61AAD5",
"~  c #66B6D6",
"^  c #7AB6D5",
"/  c #7BBCDC",
"(  c #44A9E2",
")  c #47BCED",
"_  c #54B7EA",
"`  c #5DB7E9",
"'  c #5FB8E9",
"]  c #68B1E1",
"[  c #63BAEA",
"{  c #6BBDEB",
"}  c #74BCE4",
"|  c #70BFEB",
" . c #37C3FA",
".. c #7BCBDD",
"X. c #4DC9FA",
"o. c #52CAF7",
"O. c #54CEFB",
"+. c #63C4EA",
"@. c #6ACAEC",
"#. c #75C5EF",
"$. c #79C6EF",
"%. c #6ACCF3",
"&. c #7AC7F0",
"*. c #72CCF2",
"=. c #7CCCF1",
"-. c #69D2F7",
";. c #77D8F9",
":. c #7DECFB",
">. c #89938B",
",. c #929988",
"<. c #899898",
"1. c #BAAB9C",
"2. c #BBB49B",
"3. c #849FAE",
"4. c #84A7B6",
"5. c #9FABB0",
"6. c #95B3B8",
"7. c #BBBDAE",
"8. c #B7BEB5",
"9. c #C5A593",
"0. c #C4B99D",
"q. c #C8C49C",
"w. c #CBC0A1",
"e. c #D3CDAA",
"r. c #D8D0AE",
"t. c #C7CCBD",
"y. c #CCD1BF",
"u. c #DAE4B8",
"i. c #84ADC5",
"p. c #93ADC3",
"a. c #89B0C4",
"s. c #89B7CF",
"d. c #83B8DB",
"f. c #94BDD3",
"g. c #A4C5D5",
"h. c #B2CFDE",
"j. c #81C3E6",
"k. c #8FC6E3",
"l. c #8ECCE6",
"z. c #83C5EA",
"x. c #8CCCED",
"c. c #95CAE4",
"v. c #99CBE4",
"b. c #94CAEA",
"n. c #88D5EB",
"m. c #98D1E8",
"M. c #9BD1ED",
"N. c #86CDF2",
"B. c #89CFF3",
"V. c #85D2F2",
"C. c #8CD1F4",
"Z. c #93D4F5",
"A. c #9AD6F6",
"S. c #9DD8F6",
"D. c #B0D4ED",
"F. c #AAD7F0",
"G. c #A3DAF7",
"H. c #ABDCF5",
"J. c #A6DCF8",
"K. c #AADDF8",
"L. c #87E5FB",
"P. c #92E7FC",
"I. c #91EBFA",
"U. c #9CECFB",
"Y. c #83F1FC",
"T. c #AFE6F8",
"R. c #A2EFFC",
"E. c #BCE3F7",
"W. c #BAE4F9",
"Q. c #B2F1FC",
"!. c #C5CDC1",
"~. c #CBD3C9",
"^. c #D1D9C4",
"/. c #D0D6C9",
"(. c #D3DDD0",
"). c #DAE2C6",
"_. c #D4E9D2",
"`. c #C0D9EF",
"'. c #C4E6F8",
"]. c #C5E7F8",
"[. c #D5EDF9",
"{. c #DAEFF9",
"}. c #DDF0FA",
"|. c #E2EFF9",
" X c #E3F3FC",
".X c #EBF6FC",
"XX c #EEF8FD",
"oX c #F2F9FE",
"OX c #FEFFFF",
/* pixels */
" X X{. X{.[.N.` [ [ [ [ [ [ [ [ [ [ [ [ { [ [ [ [ z.[.{.{.|. XXX",
"XX XoX X{.K.H.[ ' [ [ [ [ [ [ [ [ [ [ [ [ [ [ [ [ N.T. XXX X.X X",
" X X.X XW.G.'.| [ [ [ [ [ [ [ [ [ [ [ [ [ [ [ [ [ B.J.E. XXX.XXX",
" X X{. XA.{.OXOXOXOXoX X].E.'.h.g.f.F.G.b 9 0 Q =.N.N.$.{. X{.{.",
" X{.[.{.{ ` E.A.N.B.B.B.V.d.i.6 5 8 m s ~ Y.-.2 B.&.[ { |.{.{.{.",
" X XXXoX{ ` E.A.B.B.B.$.M N V I _ j.x @ c :.-.2 C.=.` {  X X}. X",
"XXoXXX|.{ ` E.A.N.V.n.t S Y ;.O.P.;.P z 7 8 c R Z.B.` {  X X.X.X",
" X}.{.[.{ ` E.A.N.V.u n.V.I Y &.%.) *.j.z O R V.S.B.` {  X X.X.X",
"}.{.{.{.{ ` E.S.N.B.u ;.l.T.+.Y +.%.L.U G G y x.J.B.` { |.|.}.{.",
"XX.X.XoX{ ` H.Z.V.B.W k ....U.%.Y *.o._ i.J 1 l.H.N.[ { oXXXoXoX",
" X X.XXX{ ` G.Z.N.B.^ % - Z ~ R.+.H %.V.~ 0 i M.H.N.` { XX.X X X",
" X{. X{.{ ' x.Z.B.N.^ a u., = C R.+.H o.D 1 l.J.J.N.` { {.{.{. X",
" X[. X{.{ [ B.Z.B.B.k.; u.> 9.,.v Q.+.A w @ c.G.G.$.[ { [.[.[.{.",
"XXXXoXoX{ ` x.Z.B.C.B 8.^.1.0.e.; C U.V.3.& c.G.A.$.` { .X.X XoX",
".XXX X X{ [ $.B.B.S.a ).~.^.y.t.w.; C U.I.i v.S.C.#.[ {  XoXoX.X",
"[. X{.}.{ [ $.N.C.S.s.>.^./.~./.r.0.p 3 7 s.G.A.C.$.[ { oX}. X X",
" X{. X{.{ ` &.B.A.J.G.i.<.e.7.2.2.>.k V.Z.J.G.Z.N.$.[ { XX X{. X",
"XX{. X{.{ [ #.C.S.G.G.G.s.a r 9 4 + k x.G.G.A.N.C.$.` {  XXX XXX",
" XXX.XXX{ [ #.A.J.G.G.G.M.N @.O.h w x s v.G.C.B.C.$.` {  X X XXX",
" X X.XoX{ ` &.G.G.G.J.M.# m.Q.) $ -.( j i.S.B.B.C.&.[ { [.|.{. X",
"}. X{. X{ ` N.H.G.G.m.d 6.<.s y .._ P 0 a.Z.N.B.Z.B.` { {.}.{.{.",
" XoXXXXX{ [ N.G.G.G.s !._.E e Q I.n.p.d i.B.N.N.C.B.` {  XXXXXoX",
" XXX}.}.{ ` N.J.G.G.a (.r... .X.) ! n & E N.B.N.A.H.` { XXoXoX X",
" X{.{.{.{ ` B.J.G.J.s.f q.C 8 h h 0 j g Z N.V.N.A.E.` {  X|. X X",
" X{.{. X{ [ N.G.G.G.Z.i.2 < 9 8 3 8 H j W N.B.N.A.E.` { {.}.}.}.",
" X XXXoX{ [ N.H.J.S.Z.Z Q ;.C.:.:.L.n M B.V.B.N.A.E.` {  XXX X X",
" X XoXXX{ ` N.J.J.Z.Z.v.Z 6.d 4.6.6.B / B.B.B.N.A.'.[ { .XXXXXoX",
" X X X X{ ` N.H.S.Z.G.b.6     o o o 5 / B.B.B.N.S. X| [ [. X}. X",
"{.[.|.|.] T } A.C.B.d.6 6 @ q * % - : 5. X X X X XOX[.z.}.[.[.{.",
" X X XXXd.F T [ [ [ L # # . # < X X X l [ [ [ ` &.D.F d. X.X XXX",
"XXoXXXXX XK T [ [ [ [ [ [ [ [ [ [ [ [ [ [ [ [ [ | b.K {.XX.X.X.X",
"[.{. X XXX`.T [ [ [ [ [ [ [ [ [ [ [ [ [ [ [ [ [ { ] D.}. X X{. X"
};
