/* XPM */
static char *result[] = {
/* columns rows colors chars-per-pixel */
"32 32 108 2 ",
"   c #E3F3FC",
".  c #E3F3FB",
"X  c #DCF0F9",
"o  c #DEF1FA",
"O  c #D9EFF9",
"+  c #E2F3FB",
"@  c #DCF0FA",
"#  c #DDF0FA",
"$  c #DFF1FB",
"%  c #E0F2FB",
"&  c #E2F2FB",
"*  c #E1F2FB",
"=  c #DAEFF9",
"-  c #D7EEF9",
";  c #D8EEF9",
":  c #DBEFF9",
">  c #E5F4FC",
",  c #EAF6FC",
"<  c #ECF7FC",
"1  c #E7F5FC",
"2  c #F0F8FD",
"3  c #D5EDF8",
"4  c #E6F4FC",
"5  c #EAF6FD",
"6  c #F0F9FE",
"7  c #EFF8FE",
"8  c #EFF8FD",
"9  c #EBF6FD",
"0  c #E8F5FC",
"q  c #E7F4FC",
"w  c #E6F4FB",
"e  c gray13",
"r  c #F0F8FE",
"t  c #EBF7FD",
"y  c #EEF8FD",
"u  c #E7F5FD",
"i  c #E9F6FD",
"p  c #E2F2FC",
"a  c #E4F3FC",
"s  c #F0F9FD",
"d  c #F1F9FE",
"f  c #EDF7FD",
"g  c #6CD9FF",
"h  c #19AFE7",
"j  c #EBF6FC",
"k  c #EFF8FC",
"l  c #1B68A4",
"z  c #BAFBFF",
"x  c #E2F3FC",
"c  c #D6EDF9",
"v  c #D4ECF8",
"b  c #3689B3",
"n  c #F3FAFE",
"m  c #ECF7FE",
"M  c #DEF1FB",
"N  c #E6F4FD",
"B  c #E2F3FD",
"V  c #E8F5FD",
"C  c #D2EBF8",
"Z  c #D0EBF8",
"A  c gray60",
"S  c #EDF7FC",
"D  c #EDF7FE",
"F  c #D3ECF8",
"G  c #EEF8FE",
"H  c #F5FBFE",
"J  c #F8FCFF",
"K  c #B38E59",
"L  c #E6B773",
"P  c #F6FBFE",
"I  c #DAEFFA",
"U  c #800D0D",
"Y  c #E9F5FC",
"T  c #D7EEF8",
"R  c #CFEAF7",
"E  c #F6FBFF",
"W  c #F2F9FE",
"Q  c #E6CAA1",
"!  c #E4F3FB",
"~  c #EBF7FE",
"^  c #ECF7FD",
"/  c #FCFEFF",
"(  c #F1F9FD",
")  c #E5F4FB",
"_  c #F4FAFD",
"`  c #DBF0FA",
"'  c #D8EEFA",
"]  c #F7FBFE",
"[  c #DBEFFA",
"{  c #D2ECF8",
"}  c #DFF1FC",
"|  c #F2F9FD",
" . c #FBFDFF",
".. c #F4FAFE",
"X. c #F8FCFE",
"o. c #D9EFFA",
"O. c #DCF0FB",
"+. c #EEF8FC",
"@. c #F5FBFF",
"#. c #F7FCFF",
"$. c #F3FAFF",
"%. c #FAFDFE",
"&. c #F9FCFE",
"*. c #DBEFFB",
"=. c #D1EBF8",
"-. c #D6EDFA",
";. c gray30",
":. c #D5EDF9",
/* pixels */
"  . X o O + @ # $ @ % o $ # & & * @ O = - # ; * o o % : = $ > , ",
"< 1 2 . & 3 & &   4 5 6 7 8 $ 9 0 ; q > w e e e   r t r y u i 1 ",
"p q 4 a 9 y q s   d , q t f t e e e e f e g h g e 2 2 y 1 y , j ",
"q p # 4 > k a $ & q o * : e e l l l l e e h z h e % p x c & # o ",
"+ # v O O < 1 @ 3 o O e e g h h h z l l e b h g e o @ @ o @ = - ",
"4 + s n f m M i 7 7 e h h l g h z h h l l e e e a N * r 1 $ o 4 ",
"f n y $ * % q * r e g z b h l g h h h z l l e $ > p j 7 B u V 9 ",
"p X # ; C # 3 > @ e g b z z h l g h z h l l l e @ Z $ * & x j , ",
"$ = # = & # % O = o e g g b z h l g h h l A l e O o % * % # o X ",
"S i 0 r D i y a 1 F e e e g g z h l g h z l l e f 1 G 6 H n r n ",
"> & < y n n d J H f e K L e e g z h l g h l e d j n P H 8 q p a ",
"* X % # I a 4 5 6 7 e L L U L e g z h l h l e Y & @ p a ; $ ;   ",
". T a # O o M X + a e L L U L L e g z h l e e o   $ R & - 3 T o ",
"7 y S E W D Y o * e Q Q Q L L L K e g z z A e q * ! % % Y , > s ",
", 2 % q t n ~ ^ u e L Q Q Q Q Q L K e g g g e / H ( y j ) _ y Y ",
"c & o o ` x X ( V ' e L Q Q Q Q L L K e e e * t k n 8 d ] % > * ",
"& [   ; # # : @ ` $ > e L L Q L L K e - # * $ q { % u u m 5 @ ! ",
"G @ % # & 3 o 1 - + 5 7 e K e e e e e a 2 i 9 0 } G p 0 Y 9 x 5 ",
"u 8 9 f | ( 2 ] J n n  .J e h h l e l e ..G u a x Y >   p x 1 < ",
"+ % , | 6 X.^ 5   o p q e z g h e h l l e > = = o 3 ` $ - $ = & ",
"* * # % o.% = @ - # O e e z g h e g h l e ..< q X @ @ . $ $ @ : ",
"N s j W r G   O.u   e Q Q e e e z h l l e 4 n n ..& & ) . t j r ",
"4 j % o a * a Y 2 e Q Q Q h h g g z A A e @ q 9 +.| ..| f @.E q ",
"o = = @ - + [ * ; e Q Q L h h h h l l e e @ o : & * 0 # > * % # ",
"+ # X ! a n ] 8 j % e L L l l l l l e l e # . # v $ , % X # X @ ",
") > 2 ] #.$.H J %.V > e e e e e e e l l e d 8 > 8 i p > u ^ x 1 ",
"x 4 8 f +.j $ * y ..&.e h l g h h h l e D 7 % *.M 4 9 1 , f 6 6 ",
"4 * a % @ & * 3   3 [ e z z A z z z A e # + 4 @ # C ; * O a o & ",
"= =.* $ O ; - * @ 4 - + e e e e e e e ! # [ -.' * > C % $ ; v [ ",
"V 4 u t 1 > ) ) ^ ( ^ e e e e e e e e e 6 D ^ , u ^ u ^ ! 1 1 9 ",
"< | < 8 W $.7 #.d < e ;.e e ;.e e e e e > a & 4 4 f j 9 y y < Y ",
":.-   4 j Y y j & a e e e e e e e e e e * - $ x # ; 3 $ & % O   "
};
