/* XPM */
static char *result[] = {
/* columns rows colors chars-per-pixel */
"32 32 110 2 ",
"   c #E3F3FC",
".  c #E3F3FB",
"X  c #DCF0F9",
"o  c #DEF1FA",
"O  c #D9EFF9",
"+  c #E2F3FB",
"@  c #DCF0FA",
"#  c #DDF0FA",
"$  c #DFF1FB",
"%  c #E0F2FB",
"&  c #E2F2FB",
"*  c #E1F2FB",
"=  c #DAEFF9",
"-  c #D7EEF9",
";  c #D8EEF9",
":  c #DBEFF9",
">  c #E5F4FC",
",  c #EAF6FC",
"<  c #ECF7FC",
"1  c #E7F5FC",
"2  c #F0F8FD",
"3  c #D5EDF8",
"4  c gray13",
"5  c #F0F9FE",
"6  c #EFF8FE",
"7  c #EFF8FD",
"8  c #EBF6FD",
"9  c #E8F5FC",
"0  c #E7F4FC",
"q  c #E6F4FB",
"w  c #F2F9FD",
"e  c #EAF6FD",
"r  c #F0F8FE",
"t  c #EBF7FD",
"y  c #EEF8FD",
"u  c #E7F5FD",
"i  c #E9F6FD",
"p  c #E2F2FC",
"a  c #E6F4FC",
"s  c #E4F3FC",
"d  c #6CD9FF",
"f  c #19AFE7",
"g  c #EDF7FD",
"h  c #DBEFFB",
"j  c #ECF7FD",
"k  c #EBF6FC",
"l  c #EFF8FC",
"z  c #BAFBFF",
"x  c #1B68A4",
"c  c #EBF7FE",
"v  c #D3ECF8",
"b  c #E2F3FC",
"n  c #D6EDF9",
"m  c #D4ECF8",
"M  c #3689B3",
"N  c #E8F5FD",
"B  c #F0F9FD",
"V  c #F3FAFE",
"C  c #ECF7FE",
"Z  c #DEF1FB",
"A  c #E9F5FC",
"S  c #E6F4FD",
"D  c #E2F3FD",
"F  c #D2EBF8",
"G  c #D0EBF8",
"H  c gray60",
"J  c #EDF7FC",
"K  c #EDF7FE",
"L  c #E0F2FA",
"P  c #EEF8FE",
"I  c #F5FBFE",
"U  c #F1F9FE",
"Y  c #F8FCFF",
"T  c #E6B773",
"R  c #B38E59",
"E  c #F4FAFE",
"W  c #F6FBFE",
"Q  c #DAEFFA",
"!  c #800D0D",
"~  c #D7EEF8",
"^  c #CFEAF7",
"/  c #F6FBFF",
"(  c #F2F9FE",
")  c #E6CAA1",
"_  c #E4F3FB",
"`  c #FCFEFF",
"'  c #F1F9FD",
"]  c #E5F4FB",
"[  c #F4FAFD",
"{  c #DBF0FA",
"}  c #D8EEFA",
"|  c #F7FBFE",
" . c #DBEFFA",
".. c #D2ECF8",
"X. c #DFF1FC",
"o. c #FBFDFF",
"O. c #F8FCFE",
"+. c #D9EFFA",
"@. c #DCF0FB",
"#. c #E5F4FD",
"$. c #EEF8FC",
"%. c #F5FBFF",
"&. c #F7FCFF",
"*. c #F3FAFF",
"=. c #FAFDFE",
"-. c #F9FCFE",
";. c #D1EBF8",
":. c #D6EDFA",
">. c gray30",
",. c #D5EDF9",
/* pixels */
"  . X o O + @ # $ @ % o $ # & & * @ O = - # ; * o o % : = $ > , ",
"< 1 2 . & 3 & & 4 4 4 5 6 7 $ 8 9 ; 0 > q & w e   r t r y u i 1 ",
"p 0 a s 8 y 0 4 d f d 4 t 4 4 4 4 7 , g y u h j a 2 2 y 1 y , k ",
"0 p # a > l s 4 f z f 4 4 x x x x 4 4 c s 7 v = * % p b n & # o ",
"+ # m O O < 1 4 d f M 4 x x z f f f d 4 4 > u N p o @ @ o @ = - ",
"a + B V g C Z i 4 4 4 x x f f z f d x f f 4 A N s S * r 1 $ o a ",
"g V y $ * % 0 * r 4 x x z f f f d x f M z d 4 $ > p k 6 D u N 8 ",
"p X # ; F # 3 > 4 x x x f z f d x f z z M d 4 % @ G $ * & b k , ",
"$ = # = & # % O 4 x H x f f d x f z M d d 4 @ $ O o % * % # o X ",
"J i 9 r K i y s 4 x x z f d x f z d d 4 4 4 9 L g 1 P 5 I V r V ",
"> & < y V V U Y I 4 x f d x f z d 4 4 T R 4 E U k V W I 7 0 p s ",
"* X % # Q s a e 5 4 x f x f z d 4 T ! T T 4 < A & @ p s ; $ ;   ",
". ~ s # O o Z X + 4 4 x f z d 4 T T ! T T 4 X o   $ ^ & - 3 ~ o ",
"6 y J / ( K A o * 4 H z z d 4 R T T T ) ) ) 4 0 * _ % % A , > B ",
", 2 % 0 t V c j u 4 d d d 4 R T ) ) ) ) ) T 4 ` I ' y k ] [ y A ",
"n & o o { b X ' N } 4 4 4 R T T ) ) ) ) T 4 * t l V 7 U | % > * ",
"&  .  ; # # : @ { $ > o * 4 R T T ) T T 4 * $ 0 ..% u u C e @ _ ",
"P @ % # & 3 o 1 - + e 6 & 4 4 4 4 4 R 4 2 i 8 9 X.P p 9 A 8 b e ",
"u 7 8 g w ' 2 | Y V V o.4 x 4 x f f 4 N E P u s b A >   p b 1 < ",
"+ % , w 5 O.j e   o p 4 x x f 4 f d z 4 3 > = = o 3 { $ - $ = & ",
"* * # % +.% = @ - # O 4 x f d 4 f d z 4 4 E < 0 X @ @ . $ $ @ : ",
"S B k ( r P   @.u   & 4 x x f z 4 4 4 ) ) 4 V V E & & ] . t k r ",
"a k % o s * s A 2 p #.4 H H z d d f f ) ) ) 4 8 $.w E w g %./ 0 ",
"o = = @ - +  .* ; % 9 4 4 x x f f f f T ) ) 4 : & * 9 # > * % # ",
"+ # X _ s V | 7 k % # 4 x 4 x x x x x T T 4 . # m $ , % X # X @ ",
"] > 2 | &.*.I Y =.N > 4 x x 4 4 4 4 4 4 4 U 7 > 7 i p > u j b 1 ",
"b a 7 g $.k $ * y E -.Y 4 x f f f d x f 4 6 % h Z a 8 1 , g 5 5 ",
"a * s % @ & * 3   3  .& 4 H z z z H z z 4 + a @ # F ; * O s o & ",
"= ;.* $ O ; - * @ a - + o 4 4 4 4 4 4 4 #  .:.} * > F % $ ; m  .",
"N a u t 1 > ] ] j ' j   4 4 4 4 4 4 4 4 4 K j , u j u j _ 1 1 8 ",
"< w < 7 ( *.6 &.U < ( # 4 4 4 4 4 >.4 4 >.4 & a a g k 8 y y < A ",
",.-   a k A y k & s  .# 4 4 4 4 4 4 4 4 4 4 $ b # ; 3 $ & % O   "
};
