/* XPM */
static char *result[] = {
/* columns rows colors chars-per-pixel */
"32 32 183 2 ",
"   c #3F5968",
".  c #3A5F73",
"X  c #3D6175",
"o  c #495C69",
"O  c #49606C",
"+  c #496778",
"@  c #44697D",
"#  c #4A6B7E",
"$  c #556D79",
"%  c #556C7A",
"&  c #5E737E",
"*  c #6B6A6E",
"=  c #63727A",
"-  c #717575",
";  c #956B73",
":  c #7A827C",
">  c #43728B",
",  c #4C7589",
"<  c #4A788F",
"1  c #537584",
"2  c #53748B",
"3  c #587B8F",
"4  c #437B97",
"5  c #547C93",
"6  c #567E97",
"7  c #437CA4",
"8  c #4A7EA1",
"9  c #3B86B7",
"0  c #4C829A",
"q  c #5A8698",
"w  c #5A869E",
"e  c #768A8A",
"r  c #7A888A",
"t  c #66889B",
"y  c #758E97",
"u  c #4C89A8",
"i  c #5285A7",
"p  c #598BA7",
"a  c #5C8CA5",
"s  c #4A8AB1",
"d  c #468FBE",
"f  c #4E8EBE",
"g  c #508EB1",
"h  c #628BA2",
"j  c #6B8FA0",
"k  c #6791A6",
"l  c #6D92A4",
"z  c #7697A9",
"x  c #6899B4",
"c  c #62A2BD",
"v  c #6AA2BA",
"b  c #73A1B2",
"n  c #7DA3B5",
"m  c #75A4B9",
"M  c #78AABD",
"N  c #498DC7",
"B  c #4894C8",
"V  c #5297CD",
"C  c #4A9ED4",
"Z  c #649CD2",
"A  c #5DA1CF",
"S  c #5DAECC",
"D  c #5DB2CD",
"F  c #4AACDD",
"G  c #55A6D4",
"H  c #59A3D9",
"J  c #5BAADB",
"K  c #48B2D3",
"L  c #6DAAC7",
"P  c #74A7C1",
"I  c #77ABC2",
"U  c #73ADCC",
"Y  c #7DB7CA",
"T  c #65AAD5",
"R  c #69B9DF",
"E  c #79B5D5",
"W  c #7BBADA",
"Q  c #47A9E1",
"!  c #47B8EB",
"~  c #5DB7E9",
"^  c #53BAE9",
"/  c #5FB8E9",
"(  c #68B1E1",
")  c #63BAEA",
"_  c #6BBDEB",
"`  c #75BBE4",
"'  c #70BFEB",
"]  c #3FC9FB",
"[  c #72C6D6",
"{  c #49C7FA",
"}  c #5BC6F1",
"|  c #53CCF9",
" . c #5ED0F9",
".. c #6AC7EC",
"X. c #7FC3E5",
"o. c #74C5EF",
"O. c #79C6EF",
"+. c #77CDE8",
"@. c #6ACEF4",
"#. c #7AC7F0",
"$. c #75CCF2",
"%. c #7CCAF1",
"&. c #6CD6FB",
"*. c #6BDCFA",
"=. c #72D1F4",
"-. c #79D6FB",
";. c #7BE1FB",
":. c #808D8C",
">. c #87958E",
",. c #919A8B",
"<. c #889795",
"1. c #BAB69F",
"2. c #849CA3",
"3. c #8BA4AD",
"4. c #97A8AF",
"5. c #83ABBE",
"6. c #94ADBB",
"7. c #B5BCB0",
"8. c #C6AA98",
"9. c #C4B99F",
"0. c #C3BFA4",
"q. c #B2C1BA",
"w. c #CACBA9",
"e. c #D6CDAD",
"r. c #CBD1BF",
"t. c #CEE2BA",
"y. c #86ADC4",
"u. c #94AFC6",
"i. c #87B4CB",
"p. c #98BAC7",
"a. c #84B9DB",
"s. c #A0B8C3",
"d. c #94C2CC",
"f. c #92C3DD",
"g. c #BECDCA",
"h. c #81C4E5",
"j. c #84C6EA",
"k. c #87C9EB",
"l. c #95CCEC",
"z. c #9ACDE8",
"x. c #8DD3EB",
"c. c #97D7EA",
"v. c #86CDF2",
"b. c #89CEF2",
"n. c #84D3F1",
"m. c #8CD1F4",
"M. c #93D4F5",
"N. c #9BD6F5",
"B. c #95DBF6",
"V. c #9DD8F6",
"C. c #ADD2E5",
"Z. c #B0D4ED",
"A. c #A0D5F0",
"S. c #A3DAF7",
"D. c #ABDCF6",
"F. c #A6DCF8",
"G. c #AADDF8",
"H. c #85EBFB",
"J. c #95E7F8",
"K. c #92E6FC",
"L. c #9CECFB",
"P. c #A5EEFC",
"I. c #ACE9FA",
"U. c #BDE3F7",
"Y. c #BAE4F9",
"T. c #C6CBC6",
"R. c #C7D5C4",
"E. c #C4D1C9",
"W. c #D0D6C7",
"Q. c #D2E5D7",
"!. c #DAF0D9",
"~. c #C6DBEA",
"^. c #C8E7F6",
"/. c #C4E6F8",
"(. c #D5EDF9",
"). c #DAEFF9",
"_. c #DDF0FA",
"`. c #E2EFF9",
"'. c #E4F3FC",
"]. c #EBF6FC",
"[. c #EEF8FD",
"{. c #F2F9FE",
"}. c #FEFFFF",
/* pixels */
"'.'.).'.).(.%.) ) ) ) ) ) ) ) ) _ ) ) ) ) ) ) ) ) j.(.).).`.'.].",
"[.'.{.'.).G.S._ ) ) ) ) ) ) ) ) ) ) ) ) ) ) ) ) ) v.G.].[.'.].].",
"'.'.].'.Y.S./.' / ) / / ) ) ) ) ) ) ) ) ) ) ) ) ) b.F.Y.].[.].].",
"'.'.).'.N.).}.}.T.3.b 4.^.C.p.s.p.S.Y.A.v.M.b.%.%.v.v.%.(.'.).).",
"'.).(.)._ ~ U.N., *.;.S 3 w 8 6 6 z i.B.M.F.m.m.m.#.) _ ).).).).",
"'.'.[.{._ ~ U.N., &.*.u # N v.} ^ T b t f.N.b.v.m.%.~ _ ]._.'.'.",
"[.{.[.`.) ~ U.N.U w > 5 N F @.K. .-.J K a a.n.n.M.v.~ _ '.'.'.[.",
"'._.).)._ ~ U.N.v.P , 9 h.-.! @.$.G F n.J.w m.v.V.b.~ _ '.'.].].",
"_.).).)._ ~ U.N.h.5 V f F J.@...G ..I.c.$.a v.m.S.b.~ _ `.).`.).",
"[.].].{._ ~ D.M.X.> A y.^ } O.G o.L.R [ p U n.B.F.b.) _ {.{.{.{.",
"'.'.].[._ ~ A.M.j.t 9 W H...G =.L.D n - $ U m.V.F.v.) _ [.].'.'.",
"'.).'.)._ ) b.M.v.` , ! ..G ..P.c * :.t.e L M.F.F.v.~ _ ).).).'.",
"'.(.'.)._ ) b.M.v.W $ s C ..I.c ,.8.; t.e E V.S.S.O.~ _ (.(.(.).",
"[.[.[.{._ ~ b.M.v.a.= 6.B.P.v - e.9.1.q.q.z S.S.N.O.) _ ].].'.{.",
"].[._.]._ ) O.b.n.a.j L.P.v : w.r.R.R.g.W.e S.S.m.O.) _ ].{.[.[.",
"(.'._._._ ) O.v.m.S.i.q q r 0.e.W.E.E.R.>.y.S.N.b.o.) _ {.).'.'.",
"'.).`.)._ ~ #.b.N.S.S.N.S.l ,.1.1.7.w.<.I S.S.M.v.#.~ _ [.].).'.",
"[.).'.`._ ) o.M.A.S.S.S.A.h + 2 < 5 e U S.F.N.v.m.#.) _ ].].'.].",
"'.[.].]._ ) #.M.F.S.A.z.t f g g { / k l.F.S.m.b.m.#.~ _ '.'.'.[.",
"'.'.].[._ ~ %.S.S.S.S.5.i Q &.# ! P.c.1 z.N.m.b.m.o.) _ (._.).`.",
"'.'.).'._ ~ k.F.S.S.S.5.8 Q } Y 0 q 2.q.y h.v.n.M.b.~ _ _._._.).",
"'.[.].[._ ~ v.S.S.S.S.M l u.x.K.L 9 M !.r.t v.m.m.b.~ _ '.].].{.",
"'.[.'.)._ ) v.F.S.S.S.P & k T ^ | ] +.e.Q.y n.n.N.D.~ _ [.{.{.].",
"_.).).)._ ) v.S.S.S.N.m i u 7 d d d n w.y M n.n.N.U.~ _ '.'.'.).",
"'.).).'._ ~ v.S.S.S.M.i.p B 4 > < 3 , , v b.v.v.N.U.~ _ _._._._.",
"'.].[.{.' ) v.F.S.N.M.F.k p &.*.;.m.-.L x v.m.v.N.U.~ _ '.[.'.'.",
"'.'.[.[._ ~ v.F.S.M.N.S.E l p.d.p.3.d.M W v.v.v.N./.) _ ].[.[.[.",
"'.'.'.'._ ) v.D.V.M.S.N.` 3   o o O   6 k.b.v.v.N.'._ ) _.'._.'.",
"(.(.`.`.( H ` N.b.b.M.b.l % $ $ & r - r <.~.].'.'.}.).j._.).(.).",
"].].'.].a.N H ) ) ) ) ) u . + X @ @ . @ + V ) ) #.Z.N a.'.'.'.].",
"].[.].{.`.Z H ) ) ) ) ) ) ) ) ) ) ) ) ) ) ) ) ) ' l.V `.[.[.[.].",
"(.).'.'.].~.J ) ) ) ) ) ) ) ) ) ) ) ) ) ) ) ) ) _ ( Z._.'.'.(.'."
};
