/* XPM */
static char *result[] = {
/* columns rows colors chars-per-pixel */
"32 32 102 2 ",
"   c #E3F3FC",
".  c #E3F3FB",
"X  c #DCF0F9",
"o  c #DEF1FA",
"O  c #D9EFF9",
"+  c #E2F3FB",
"@  c #DCF0FA",
"#  c #DDF0FA",
"$  c #DFF1FB",
"%  c #E0F2FB",
"&  c #E2F2FB",
"*  c #E1F2FB",
"=  c #DAEFF9",
"-  c #D7EEF9",
";  c #D8EEF9",
":  c #DBEFF9",
">  c #E5F4FC",
",  c #EAF6FC",
"<  c #ECF7FC",
"1  c #E7F5FC",
"2  c #F0F8FD",
"3  c #D5EDF8",
"4  c #E6F4FC",
"5  c #EAF6FD",
"6  c #F0F9FE",
"7  c #EFF8FE",
"8  c #EFF8FD",
"9  c #EBF6FD",
"0  c #E8F5FC",
"q  c #E7F4FC",
"w  c #E6F4FB",
"e  c #F2F9FD",
"r  c #F0F8FE",
"t  c #EBF7FD",
"y  c #EEF8FD",
"u  c #E7F5FD",
"i  c #E9F6FD",
"p  c #E2F2FC",
"a  c #E4F3FC",
"s  c #F0F9FD",
"d  c #F1F9FE",
"f  c #EDF7FD",
"g  c #E6F4FD",
"h  c #DBEFFB",
"j  c #ECF7FD",
"k  c #EBF6FC",
"l  c #EFF8FC",
"z  c gray13",
"x  c #EBF7FE",
"c  c #D3ECF8",
"v  c #E2F3FC",
"b  c #D6EDF9",
"n  c #D4ECF8",
"m  c #1B68A4",
"M  c #E8F5FD",
"N  c #F3FAFE",
"B  c #ECF7FE",
"V  c #DEF1FB",
"C  c #19AFE7",
"Z  c #BAFBFF",
"A  c #E9F5FC",
"S  c #6CD9FF",
"D  c #E2F3FD",
"F  c #D2EBF8",
"G  c #D0EBF8",
"H  c #EDF7FC",
"J  c #EDF7FE",
"K  c #EEF8FE",
"L  c #F5FBFE",
"P  c #F8FCFF",
"I  c #3689B3",
"U  c #F6FBFE",
"Y  c #DAEFFA",
"T  c #D7EEF8",
"R  c #CFEAF7",
"E  c #F6FBFF",
"W  c #F2F9FE",
"Q  c #E4F3FB",
"!  c #FCFEFF",
"~  c #F1F9FD",
"^  c #E5F4FB",
"/  c #F4FAFD",
"(  c #DBF0FA",
")  c #D8EEFA",
"_  c #F7FBFE",
"`  c #DBEFFA",
"'  c #D2ECF8",
"]  c #DFF1FC",
"[  c #F8FCFE",
"{  c #D9EFFA",
"}  c #DCF0FB",
"|  c #F4FAFE",
" . c #EEF8FC",
".. c #F5FBFF",
"X. c #F7FCFF",
"o. c #F3FAFF",
"O. c #FAFDFE",
"+. c #F9FCFE",
"@. c #D1EBF8",
"#. c gray60",
"$. c #D6EDFA",
"%. c #D5EDF9",
/* pixels */
"  . X o O + @ # $ @ % o $ # & & * @ O = - # ; * o o % : = $ > , ",
"< 1 2 . & 3 & &   4 5 6 7 8 $ 9 0 ; q > w & e 5   r t r y u i 1 ",
"p q 4 a 9 y q s   d , q t f t g u 8 , f y u h j 4 2 2 y 1 y , k ",
"q p # 4 > l a $ & q o * : > z z z z z x a 8 c = * % p v b & # o ",
"+ # n O O < 1 @ 3 o O @ z z m m m m m z z > u M p o @ @ o @ = - ",
"4 + s N f B V i 7 7 5 z m m C Z C C C m m z A M a g * r 1 $ o 4 ",
"f N y $ * % q * r i z m Z C C S C C Z C C m z $ > p k 7 D u M 9 ",
"p X # ; F # 3 > @ z z m C S z z z S C C C m z % @ G $ * & v k , ",
"$ = # = & # % O = z m C C z S C S z m S Z C m z O o % * % # o X ",
"H i 0 r J i y a 1 z m Z S z C Z C z m C C C m z f 1 K 6 L N r N ",
"> & < y N N d P L z m C C z S C I z m C C C m z k N U L 8 q p a ",
"* X % # Y a 4 5 6 z m C C S z z z m C S Z C m z & @ p a ; $ ;   ",
". T a # O o V X + z m C Z C m m m C C C C C m z   $ R & - 3 T o ",
"7 y H E W J A o * z z m C C C S C S C C C m z q * Q % % A , > s ",
", 2 % q t N x j u u z m m C C Z C C Z C m m z ! L ~ y k ^ / y A ",
"b & o o ( v X ~ M ) z z m m m C C C m m m z * t l N 8 d _ % > * ",
"& `   ; # # : @ ( $ > z z z m m m m m z z * $ q ' % u u B 5 @ Q ",
"K @ % # & 3 o 1 - + 5 7 z z z z z z z z 2 i 9 0 ] K p 0 A 9 v 5 ",
"u 8 9 f e ~ 2 _ P N N z C S C C C C S C z K u a v A >   p v 1 < ",
"+ % , e 6 [ j 5   o z C S Z S S S S C S C z = = o 3 ( $ - $ = & ",
"* * # % { % = @ - z C C C Z C C C C Z C C C z q X @ @ . $ $ @ : ",
"g s k W r K   } z C C C C C C S S C C C C C C z | & & ^ . t k r ",
"4 k % o a * a A z Z C z C C S C C S C C z C Z z  .e | e f ..E q ",
"o = = @ - + ` * z C Z z C C C C C C C C z Z C z & * 0 # > * % # ",
"+ # X Q a N _ 8 k z z z X C m C m C m C z z z # n $ , % X # X @ ",
"^ > 2 _ X.o.L P O.M > z m C S C C C S C m z 8 > 8 i p > u j v 1 ",
"v 4 8 f  .k $ * y | +.z m C S C m m S C m z % h V 4 9 1 , f 6 6 ",
"4 * a % @ & * 3   3 ` z m C C C m m C C m z 4 @ # F ; * O a o & ",
"= @.* $ O ; - * @ 4 - z #.#.Z Z #.#.Z Z #.z $.) * > F % $ ; n ` ",
"M 4 u t 1 > ^ ^ j ~ j   z z z z z z z z z J j , u j u j Q 1 1 9 ",
"< e < 8 W o.7 X.d < W # z z z z z z z z z a & 4 4 f k 9 y y < A ",
"%.-   4 k A y k & a ` # # z z z z z z z * - $ v # ; 3 $ & % O   "
};
