/* XPM */
static char *result[] = {
/* columns rows colors chars-per-pixel */
"32 32 70 1 ",
"  c #3B5E71",
". c #4A6775",
"X c #4E6876",
"o c #546B77",
"O c #5D6E76",
"+ c #657177",
"@ c #6E7579",
"# c #717679",
"$ c #4A8CCA",
"% c #4691C4",
"& c #4B93C4",
"* c #5296C5",
"= c #5D9AC6",
"- c #5290CC",
"; c #649CD2",
": c #56A3DA",
"> c #59A3D9",
", c #5DA8DD",
"< c #61A9CE",
"1 c #45BBEC",
"2 c #4BBEED",
"3 c #5DB7E9",
"4 c #5FB8E9",
"5 c #64B0E1",
"6 c #6BB1E1",
"7 c #63BAEA",
"8 c #6BBDEB",
"9 c #77BBE7",
"0 c #70BFEB",
"q c #4FC0ED",
"w c #50C1ED",
"e c #75C5EF",
"r c #79C6EF",
"t c #7AC7F0",
"y c #7EC9F1",
"u c #77D5FA",
"i c #7FD8FB",
"p c #92AFBD",
"a c #9EB3BF",
"s c #83B3DD",
"d c #86C5EB",
"f c #95C9EB",
"g c #85CDF2",
"h c #89CEF2",
"j c #8CD1F4",
"k c #81D9FC",
"l c #93D4F5",
"z c #9AD7F6",
"x c #9DD8F6",
"c c #B0D4ED",
"v c #A3DAF7",
"b c #ABDCF5",
"n c #A6DCF8",
"m c #AADDF8",
"M c #A6E9FA",
"N c #ABEBFB",
"B c #BDE3F7",
"V c #BAE4F9",
"C c #B0EEFC",
"Z c #C0D9EF",
"A c #C4E6F8",
"S c #D5EDF9",
"D c #DAEFF9",
"F c #DDF0FA",
"G c #E2EFF9",
"H c #E3F3FC",
"J c #EBF6FC",
"K c #EEF8FD",
"L c #F2F9FE",
"P c #FEFFFF",
/* pixels */
"HHDHDSg377777777777777777dSDDHHJ",
"KHLHDmb777777777778777777gmJKHJH",
"HHJHVvA0477788     777774hnVHKJJ",
"HHDHzDPPPPLH+o===**o.ljtyggySHFF",
"HDSD83Bzggj.%&wC2ww&&ojjjt78FFDS",
"HHKL83Bzgj.%N2wkwwN2w*.hjy38JFHH",
"KLKG83Bzg..%1koook22w&.glg38HHHK",
"HFDS83Bzg.%12okwko&kC1%.xh38HHJJ",
"FDDD83Vzg.%MkowCwX&w21%.vh38GDHD",
"KJJK73blg.%qwokw<o&q11%omg78LLKL",
"HHKKe3vlg.%qwkooo&wiM1&omg78KJHH",
"HDHD85hlg.&qCw**&22111&ovg38DDDH",
"HSHH83hlg.o&2w2k2k211%ovvr38SSSD",
"LJJL83hlgjo**wwN2qN1%&ovze78JJJK",
"JJHJ87ehjzoo***2w2%%%ovvjr78HLKJ",
"SHDF87rhjvMooo&&*%%.Xvnzhr78LHHG",
"HDHD84rjzvvvooooo...znvjjt48JJFH",
"KFFF87ejvvvoqi1q21u1onzhht48JJFJ",
"HLJJ84ezvvowkNkkuu1iwojgjt48HHHK",
"HFJL84rvvoqqqNw111Mqwq.jjt48SFDH",
"HHFF83dnowww1qquu12ww21.lh38FFFD",
"HLJL83hnoCwo2qi11uwwo1M.jh38HKJL",
"HJFF83gnoqCXqq1112wwXM1.zb38KLLH",
"FDFF87gnvooXvq%1&2*q...gzB38HHHF",
"HFFH83dnvvlo&1u12wk2%.kgzB38DFFF",
"HHLL87hnvxlo&1u1**k1%XhgxB38HKHH",
"HHLK83gnvlzo&111**q1%.ggzA78JJKL",
"HHHF84gmxlvoppMCasMMp.ghzH07FHFH",
"SSFH5:9zjhlhXooOO@##@HHFHPSdFDSF",
"JJHJs->77777         774tc$sHHHJ",
"JLKKH;>777777       7774ef=DKKJJ",
"SSHHJZ,7777777777775777786cFHHSH"
};
