/* XPM */
static char *result[] = {
/* columns rows colors chars-per-pixel */
"32 32 99 2 ",
"   c #1B271A",
".  c #3B4284",
"X  c #2B4CA7",
"o  c #414FBB",
"O  c #7A5DAA",
"+  c #6961C5",
"@  c #9F7FBC",
"#  c gray83",
"$  c #CFEAF7",
"%  c #D0EBF8",
"&  c #D1EBF8",
"*  c #D2EBF8",
"=  c #D3ECF8",
"-  c #D4ECF8",
";  c #D5EDF8",
":  c #D5EDF9",
">  c #D6EDF8",
",  c #D6EDF9",
"<  c #D7EEF8",
"1  c #D7EEF9",
"2  c #D8EEF9",
"3  c #D9EFF9",
"4  c #DAEFF9",
"5  c #DBEFF9",
"6  c #DAEFFA",
"7  c #DBEFFA",
"8  c #DBEFFB",
"9  c #DBF0FA",
"0  c #DCF0F9",
"q  c #DCF0FA",
"w  c #DDF0FA",
"e  c #DCF0FB",
"r  c #DEF1FA",
"t  c #DEF1FB",
"y  c #DFF1FB",
"u  c #E0F2FA",
"i  c #E0F2FB",
"p  c #E1F2FB",
"a  c #E2F2FB",
"s  c #E2F3FB",
"d  c #E3F3FB",
"f  c #E4F3FB",
"g  c #E5F4FB",
"h  c #E6F4FB",
"j  c #E7F4FB",
"k  c #E2F2FC",
"l  c #E2F3FC",
"z  c #E3F3FC",
"x  c #E2F3FD",
"c  c #E4F3FC",
"v  c #E5F4FC",
"b  c #E5F4FD",
"n  c #E6F4FC",
"m  c #E7F4FC",
"M  c #E7F5FC",
"N  c #E6F4FD",
"B  c #E7F5FD",
"V  c #E8F5FC",
"C  c #E9F5FC",
"Z  c #E8F5FD",
"A  c #E9F6FD",
"S  c #EAF6FC",
"D  c #EBF6FC",
"F  c #EAF6FD",
"G  c #EBF6FD",
"H  c #EBF7FD",
"J  c #EBF7FE",
"K  c #ECF7FC",
"L  c #EDF7FC",
"P  c #ECF7FD",
"I  c #EDF7FD",
"U  c #ECF7FE",
"Y  c #EDF7FE",
"T  c #EEF8FC",
"R  c #EFF8FC",
"E  c #EEF8FD",
"W  c #EFF8FD",
"Q  c #EEF8FE",
"!  c #EFF8FE",
"~  c #F0F8FD",
"^  c #F0F9FD",
"/  c #F1F9FD",
"(  c #F2F9FD",
")  c #F3FAFD",
"_  c #F0F8FE",
"`  c #F0F9FE",
"'  c #F1F9FE",
"]  c #F2F9FE",
"[  c #F3FAFE",
"{  c #F3FAFF",
"}  c #F4FAFD",
"|  c #F4FAFE",
" . c #F5FBFE",
".. c #F6FBFE",
"X. c #F7FBFE",
"o. c #F6FBFF",
"O. c #F7FCFF",
"+. c #F8FCFE",
"@. c #F8FCFF",
/* pixels */
"z d 0 r 3 s q w y q i r y w a a p q 3 4 1 w 2 p r r i 5 4 y v S ",
"K M ~ d a ; a a z n F ` ! W y G V 2 m v h a ( F z _ H _ E B A M ",
"k m n c G E m ^ z ' S m H I H N B W S I E B 8 P n ~ ~ E M E S D ",
"m k w n v R c y a m r p 5 v K C ' I Q J c W = 4 p i k l , a w r ",
"s w - 3 3 K M q ; r 3 q 3 9 q , 4 r 6 1 w v B Z k r q q r q 4 1 ",
"n s ^ [ I U t A ! ! F y p q y r r > s e i c C Z c N p _ M y r n ",
"I [ E y p i m p _ A F F N I A j f H ` ` r 0 m y v k D ! x B Z G ",
"k 0 w 2 * w ; v q 5 V c l b ] G Z m H q 2 5 r i q % y p a l D S ",
"y 4 w 4 a w i 3 4 r 1 : p a B g k q a 3 i 3 q y 3 r i p i w r 0 ",
"L A V _ Y A E c M = i & r w q q 3 3 q f a s V u I M Q `  .[ _ [ ",
"v a K E [ [ ' @. .I K d p q ; 5 5 p a  .I ~ | ' D [ .. .W m k c ",
"p 0 i w 6 c n F ` ! { +./ ) G P E ~  .] ] ( K C a q k c 2 y 2 z ",
"d < c w 3 r t 0 s c k Y c k G F ! z P l y s 0 r z y $ a 1 ; < r ",
"! E L o.] Y C r p q                         +.m p f i i C S v ^ ",
"S ~ i m H [ J       o + o + + + + o + + + +       / E D g } E C ",
", a r r 9     o o o o o o o o o o o o o o o o + o     ' X.i v p ",
"a 7 z 2   + o # # # o o o o o o o o o o o o o o o o +   U F q f ",
"Q q i   + o # # # # # o o o o o o o o o o o o o o o o +   G l F ",
"B W G   + o # # # # # o o o o o o o o o o o o # # o o +   l M K ",
"s i   + o o # # # # # o o o o o o o o o o o # # # # o o +   4 a ",
"p p   + o o X # # # X o o o o # # o o o o o # # # # o o +   q 5 ",
"N ^   o o o o X X X o o o o # # # # o o o o X # # X o o o   D _ ",
"n D   X o o o o o o o o o o # # # # o o o o o X X o o o X   o.m ",
"r 4 4   X X o o o o o o o o X # # X o o o o o o o o X X   p i w ",
"s w 0   X X X X X X X X X X X X X X X X X X X X X X X X   w 0 q ",
"g v ~ X.  X X X X X X X X X X X X X X X X X X X X X X   B P l M ",
"l n W I T                                             M S I ` ` ",
"n p c i q a p   O O . . . O O O . . . O O O O O   * 2 p 3 c r a ",
"4 & p y 3 2 1 p   O @ @ @ @ @ @ @ @ @ @ @ @ O   p v * i y 2 - 7 ",
"Z n B H M v g g P     @               @ @     S B P B P f M M G ",
"K ( K W ] { ! O.' K   O O   ~ F ~ W   O O   a n n I D G E E K C ",
": 1 z n D C E D a c 7     q 7 k q c 5     1 y l w 2 ; y a i 3 z "
};
