/* XPM */
static char *result[] = {
/* columns rows colors chars-per-pixel */
"32 32 101 2 ",
"   c #1B271A",
".  c #3B4284",
"X  c #2B4CA7",
"o  c #414FBB",
"O  c #7A5DAA",
"+  c #6961C5",
"@  c #9F7FBC",
"#  c gray83",
"$  c #CFEAF7",
"%  c #D0EBF8",
"&  c #D1EBF8",
"*  c #D2EBF8",
"=  c #D3ECF8",
"-  c #D4ECF8",
";  c #D5EDF8",
":  c #D5EDF9",
">  c #D6EDF8",
",  c #D6EDF9",
"<  c #D7EEF8",
"1  c #D7EEF9",
"2  c #D8EEF9",
"3  c #D9EFF9",
"4  c #DAEFF9",
"5  c #DBEFF9",
"6  c #D8EEFA",
"7  c #DAEFFA",
"8  c #DBEFFA",
"9  c #DBEFFB",
"0  c #DBF0FA",
"q  c #DCF0F9",
"w  c #DCF0FA",
"e  c #DDF0FA",
"r  c #DCF0FB",
"t  c #DEF1FA",
"y  c #DEF1FB",
"u  c #DFF1FB",
"i  c #E0F2FA",
"p  c #E0F2FB",
"a  c #E1F2FB",
"s  c #E2F2FB",
"d  c #E2F3FB",
"f  c #E3F3FB",
"g  c #E4F3FB",
"h  c #E5F4FB",
"j  c #E6F4FB",
"k  c #E7F4FB",
"l  c #E2F2FC",
"z  c #E2F3FC",
"x  c #E3F3FC",
"c  c #E2F3FD",
"v  c #E4F3FC",
"b  c #E5F4FC",
"n  c #E5F4FD",
"m  c #E6F4FC",
"M  c #E7F4FC",
"N  c #E7F5FC",
"B  c #E6F4FD",
"V  c #E7F5FD",
"C  c #E8F5FC",
"Z  c #E9F5FC",
"A  c #E8F5FD",
"S  c #E9F6FD",
"D  c #EAF6FC",
"F  c #EBF6FC",
"G  c #EAF6FD",
"H  c #EBF6FD",
"J  c #EBF7FD",
"K  c #EBF7FE",
"L  c #ECF7FC",
"P  c #EDF7FC",
"I  c #ECF7FD",
"U  c #EDF7FD",
"Y  c #ECF7FE",
"T  c #EDF7FE",
"R  c #EEF8FC",
"E  c #EFF8FC",
"W  c #EEF8FD",
"Q  c #EFF8FD",
"!  c #EEF8FE",
"~  c #EFF8FE",
"^  c #F0F8FD",
"/  c #F0F9FD",
"(  c #F1F9FD",
")  c #F2F9FD",
"_  c #F3FAFD",
"`  c #F0F8FE",
"'  c #F0F9FE",
"]  c #F1F9FE",
"[  c #F2F9FE",
"{  c #F3FAFE",
"}  c #F3FAFF",
"|  c #F4FAFD",
" . c #F4FAFE",
".. c #F5FBFE",
"X. c #F5FBFF",
"o. c #F6FBFE",
"O. c #F7FBFE",
"+. c #F6FBFF",
"@. c #F7FCFF",
"#. c #F8FCFE",
"$. c #F8FCFF",
/* pixels */
"x f q t 3 d w e u w p t u e s s a w 3 4 1 e 2 a t t p 5 4 u b D ",
"L N ^ f s ; s s x m G ' ~ Q u H C 2 M b j s ) G x ` J ` W V S N ",
"l M m v H W M / x ] D M J U J B V Q D U W V 9 I m ^ ^ W N W D F ",
"M l e m b E v u s M t a 5 b L Z ] U ! K v Q = 4 a p l z , s e t ",
"d e - 3 3 L N w ; t 3 w 3 0 w , 4 t 7 1 e b V A l t w w t w 4 1 ",
"m d / { U Y y S ~ ~ G u a w u t t > d r p v Z A v B a ` N u t m ",
"U { W u a p M a ` S G G B U S k g J ' ' t q M u b l F ~ c V A H ",
"l q e 2 * e ; b w 5 C v z n [ H A M J w 2 5 t p w % u a s z F D ",
"u 4 e 4 s e p 3 4 t 1 : a s V h l w s 3 p 3 w u 3 t p a p e t q ",
"P S C ` T S W v N = p & t e w w 3 3 w g s d C i U N ! ' ..{ ` { ",
"b s L W { { ] $...U L f a w ; 5 5 a s ..U ^  .] F { o...Q M l v ",
"a q p e 7 v m G ' ~ } #.( _ H I W ^ ..[ [ ) L Z s w l v 2 u 2 x ",
"f < v e 3 t y q d v l T v l H G ~ x I z u d q t x u $ s 1 ; < t ",
"~ W P +.[ T Z t                                 a g p p Z D b / ",
"D ^ p M J {     o o o o + o + + o + + + + o + o     W F h | W Z ",
", s t t 0   + o # # # o o o o o o o o o o o o o o +   ] O.p b a ",
"s 8 x 2   + o # # # # # o o o o o o o o o o o o o o +   Y G w g ",
"! w p e   + o # # # # # o o o o o o o o o o # # o o +   Z H z G ",
"V Q H   + o o # # # # # o o o o o o o o o # # # # o o +   z N L ",
"d p D   + o o X # # # X o o o # # o o o o # # # # o o +   u 4 s ",
"a a e   o o o o X X X o o o # # # # o o o X # # X o o o   u w 5 ",
"B / F   X o o o o o o o o o # # # # o o o o X X o o o X   J F ` ",
"m F p t   X X o o o o o o o X # # X o o o o o o o X X   U X.+.M ",
"t 4 4 w   X X X X X X X X X X X X X X X X X X X X X X   b a p e ",
"d e q g v   X X X X X X X X X X X X X X X X X X X X   p q e q w ",
"h b ^ O.@.}                                         l b V I z N ",
"z m Q U R F u a   O . # # . O . # # . O O O O   y m H N D U ' ' ",
"m a v p w s a ;   O O . . O @ O . . O @ @ @ O   e * 2 a 3 v t s ",
"4 & a u 3 2 1 a w   O @ @ @ @ @ @ @ @ @ @ O   6 a b * p u 2 - 8 ",
"A m V J N b h h I (   @               @ @   I D V I V I g N N H ",
"L ) L Q [ } ~ @.] L   O O   ^ G ^ Q   O O   s m m U F H W W L Z ",
": 1 x m F Z W F s v 8     w 8 l w v 5     1 u z e 2 ; u s p 3 x "
};
